<svg width="103" viewBox="0 0 103 35" fill="none" xmlns="http://www.w3.org/2000/svg">
<g clip-path="url(#clip0_6001_1288)">
<path d="M1.53577 34.7486V21.8738H4.08268L9.62595 30.2934V21.8738H12.3601V34.7486H9.81322L4.26995 26.329V34.7486H1.53577Z" fill="#DCDDD7"/>
<path d="M14.8699 34.7486V21.8738H23.2222V24.2524H17.679V27.0841H22.7353V29.4628H17.679V32.4833H23.3721V34.6731L14.8699 34.7486Z" fill="#DCDDD7"/>
<path d="M28.6526 34.7486V24.1392H24.8323V21.8738H35.0574V24.2524H31.2745V34.7486H28.6526Z" fill="#DCDDD7"/>
<path d="M36.7805 34.1056V32.6331C37.9416 33.1994 39.215 33.4637 40.4885 33.4637C41.3125 33.5392 42.1365 33.2749 42.7357 32.8974C43.2976 32.5198 43.5598 31.8779 43.5598 31.2361C43.5598 30.783 43.3725 30.3299 42.9979 29.9524C42.4361 29.4993 41.8368 29.1217 41.2001 28.933L39.8517 28.3666C38.9528 28.1023 38.1288 27.536 37.4172 26.8941C36.9677 26.4411 36.7056 25.7992 36.7056 25.0441C36.7056 24.0247 37.155 23.1185 37.8667 22.4767C38.8779 21.8348 39.9641 21.4572 41.1252 21.5705C41.7619 21.5705 42.2863 21.646 42.923 21.7593C43.4848 21.8348 44.0092 22.0236 44.4587 22.3256V23.7981C43.4474 23.345 42.2863 23.0808 41.2001 22.9675C39.2899 22.9675 38.3161 23.6093 38.3161 24.8931C38.3161 25.3461 38.5034 25.7237 38.8779 25.988C39.4397 26.4411 40.039 26.7053 40.6757 27.0074L42.0241 27.5737C42.923 27.838 43.8219 28.4044 44.571 29.1217C45.0205 29.6881 45.2827 30.4055 45.2827 31.2361C45.3576 32.2555 44.9081 33.2372 44.1216 33.879C43.1103 34.5964 41.9492 34.8984 40.7507 34.8984C40.3012 34.8984 39.8517 34.8984 39.4023 34.8229C38.9528 34.7474 38.5034 34.6341 38.0539 34.5586C37.4172 34.4454 37.0427 34.2943 36.7805 34.1056Z" fill="#DCDDD7"/>
<path d="M47.3054 28.8964V21.8738H48.9534V28.8964C48.9534 30.4444 49.2156 31.6526 49.7774 32.37C51.0509 33.7292 53.2232 33.918 54.5716 32.6343C54.6465 32.5588 54.7589 32.4455 54.8338 32.37C55.3956 31.6526 55.6578 30.4444 55.6578 28.8964V21.8738H57.3058V29.0097C57.3058 31.1241 56.8563 32.5588 56.0323 33.5782C55.2083 34.5976 53.9349 35.0507 52.3243 35.0507C50.7138 35.0507 49.4403 34.5976 48.6163 33.5782C47.7549 32.5588 47.3054 31.0108 47.3054 28.8964Z" fill="#DCDDD7"/>
<path d="M59.9644 34.7486V21.8738H61.6124V34.7486H59.9644Z" fill="#DCDDD7"/>
<path d="M67.8676 34.7486V23.233H63.8975V21.8738H73.5982V23.233H69.5156V34.6354H67.8676V34.7486Z" fill="#DCDDD7"/>
<path d="M75.7328 34.7486V21.8738H83.5982V23.233H77.3433V27.4239H83.0364V28.7832H77.3433V33.1629H83.7855V34.5221H75.7328V34.7486Z" fill="#DCDDD7"/>
<path d="M44.4211 8.77019H51.2004L47.6422 2.91798L41.0127 13.452H37.9789L46.0316 0.841386C46.6684 -0.0647631 47.8295 -0.253544 48.7284 0.388311C48.9156 0.463824 49.1029 0.577092 49.1778 0.765873L57.2305 13.452H54.1967L52.7734 11.1111H45.8818L44.4211 8.77019ZM75.5833 11.1111V0.124018H72.9989V12.206C72.9989 12.5836 73.1862 12.8479 73.3734 13.1122C73.6356 13.3764 73.8978 13.4897 74.2724 13.4897H85.8833L87.4189 11.1488L75.5833 11.1111ZM33.5218 9.10999C36.0313 9.10999 37.9789 7.14667 37.9789 4.61701C37.9789 2.08734 35.9938 0.124018 33.5218 0.124018H22.3229V13.452H24.9073V2.4649H33.3345C34.4956 2.54042 35.3945 3.55983 35.3945 4.73027C35.3196 5.8252 34.4956 6.6936 33.3345 6.80687H26.1807L33.784 13.4897H37.4545L32.3607 9.10999H33.5218ZM6.70436 13.452H14.3825C18.0531 13.452 21.012 10.4692 21.012 6.76911C21.012 3.069 18.0531 0.124018 14.3825 0.124018H6.70436C3.03382 0.124018 0 3.069 0 6.76911C0 10.4692 3.03382 13.452 6.70436 13.452ZM14.1953 11.1111H6.77927C4.45709 11.0356 2.58436 9.03448 2.65927 6.61808C2.73418 4.35271 4.532 2.57817 6.77927 2.4649H14.1953C16.5175 2.38939 18.5775 4.2772 18.6524 6.61808C18.7273 8.95897 16.8545 11.0356 14.5324 11.1111C14.3825 11.1111 14.3076 11.1111 14.1953 11.1111ZM62.5491 13.452H70.4145L71.9502 11.1111H62.7364C60.4142 11.1866 58.3542 9.29878 58.2793 6.95789C58.2044 4.61701 60.0771 2.54042 62.3993 2.4649C62.4742 2.4649 62.5865 2.4649 62.6614 2.4649H70.1524L71.688 0.124018H62.5491C58.8785 0.124018 55.9196 3.10676 55.9196 6.80687C55.9196 10.507 58.8785 13.452 62.5491 13.452ZM93.7113 11.1111C91.8385 11.1111 90.1531 9.86512 89.5913 7.97731H100.491L102.026 5.63642H89.5913C90.1156 3.74861 91.8385 2.50266 93.7113 2.50266H101.202L102.738 0.161774H93.6364C89.9658 0.161774 87.0069 3.14451 87.0069 6.84462C87.0069 10.5447 89.9658 13.5275 93.6364 13.5275H101.502L103.037 11.1866L93.7113 11.1111Z" fill="#DCDDD7"/>
</g>
<defs>
<clipPath id="clip0_6001_1288">
<rect width="103" height="35" fill="white"/>
</clipPath>
</defs>
</svg>
