<svg width="82" viewBox="0 0 82 46" fill="none" xmlns="http://www.w3.org/2000/svg">
<g clip-path="url(#clip0_6001_1307)">
<path d="M9.06163 0.000488281C14.192 0.000488281 18.3635 3.52947 18.4596 8.44113C18.5077 9.82384 17.5008 10.5874 16.3979 10.5874C15.343 10.5874 14.4322 9.82488 14.3842 8.53672C14.3361 5.77023 11.9872 3.71954 9.01361 3.71954C6.2322 3.71954 4.12349 5.67467 4.12349 8.34554C4.12349 11.2543 6.08916 12.5425 10.1646 14.0208C14.5273 15.5947 18.5077 17.4542 18.5077 22.986C18.5077 27.8032 14.7194 31.6656 9.44601 31.6656C4.26764 31.6656 0 28.0411 0 23.1294C0 20.0773 1.48625 17.931 2.92446 17.931C4.17154 17.931 4.93814 18.7413 4.93814 19.8383C4.93814 20.792 4.12349 21.221 4.12349 22.9382C4.12349 25.9904 6.61658 27.9455 9.44601 27.9455C12.4185 27.9455 14.3842 25.8948 14.3842 23.4151C14.3842 20.363 12.4185 19.0758 8.34307 17.6443C3.78824 16.0247 0 14.0686 0 8.68007C0 3.8162 3.93131 0.000488281 9.06163 0.000488281Z" fill="#DCDDD7"/>
<path d="M29.9866 31.6692C24.8083 31.6692 20.4937 27.52 20.4937 22.2738C20.4937 16.8375 24.8563 12.7839 30.1308 12.7839C35.7885 12.7839 39.7677 16.9809 39.7677 22.7039V29.6663C39.7677 30.8589 38.809 31.6692 37.7063 31.6692C36.5553 31.6692 35.5962 30.8589 35.5962 29.6663V22.8462C35.5962 19.0783 33.4387 16.503 30.0347 16.503C27.0141 16.503 24.6171 19.0305 24.6171 22.2738C24.6171 25.2782 26.9661 27.8535 29.9397 27.8535C31.0426 27.8535 31.522 27.5678 32.1936 27.5678C33.1044 27.5678 34.0632 28.3303 34.0632 29.4273C34.0622 30.9056 32.2875 31.6692 29.9866 31.6692Z" fill="#DCDDD7"/>
<path d="M51.582 45.8807C46.2116 45.8807 41.7528 42.065 41.7528 37.1054C41.7528 35.4361 42.7116 34.6736 43.8146 34.6736C44.9174 34.6736 45.8282 35.3894 45.8764 36.772C45.9243 39.872 48.4174 42.1605 51.5341 42.1605C54.843 42.1605 56.9996 40.0622 56.9996 37.3433C56.9996 34.2433 54.6025 32.9563 50.5271 31.6681C45.7803 30.142 41.7528 28.0436 41.7528 22.226C41.7528 16.8842 45.8764 12.7839 51.2458 12.7839C56.6634 12.7839 61.1232 16.6941 61.1232 21.8448C61.1232 24.9925 59.8292 27.4244 58.0544 27.4244C56.8556 27.4244 56.0408 26.5664 56.0408 25.5171C56.0408 24.4201 56.9996 23.9432 56.9996 21.9881C56.9996 18.6971 54.4103 16.5041 51.2937 16.5041C48.2731 16.5041 45.8764 18.7937 45.8764 21.798C45.8764 25.1836 48.3213 26.6152 52.3489 27.9501C56.9996 29.4762 61.1232 31.3835 61.1232 36.9632C61.1232 41.9704 57.1439 45.8807 51.582 45.8807Z" fill="#DCDDD7"/>
<path d="M72.8905 31.6681C67.5199 31.6681 63.1093 27.4712 63.1093 22.226C63.1093 16.9798 67.3769 12.7839 72.6501 12.7839C77.9729 12.7839 82.0001 16.4563 82.0001 21.1301C82.0001 22.9418 80.7061 24.0388 78.5964 24.0388H73.0828C71.9797 24.0388 71.1649 23.2763 71.1649 22.2738C71.1649 21.3201 71.9797 20.5566 73.0828 20.5566H77.206C77.5895 20.5566 77.8778 20.3654 77.8778 19.9842C77.8778 18.6015 76.1033 16.4552 72.7954 16.4552C69.727 16.4552 67.2339 19.0783 67.2339 22.226C67.2339 25.4215 69.7749 27.9491 72.9394 27.9491C76.5838 27.9491 77.7827 25.8028 79.2688 25.8028C80.5159 25.8028 81.1866 26.6131 81.1866 27.52C81.1866 28.3781 80.611 29.1417 79.1727 30.0475C77.7325 30.9523 75.5759 31.6681 72.8905 31.6681Z" fill="#DCDDD7"/>
</g>
<defs>
<clipPath id="clip0_6001_1307">
<rect width="82" height="46" fill="white"/>
</clipPath>
</defs>
</svg>
