<svg width="61" viewBox="0 0 61 60" fill="none" xmlns="http://www.w3.org/2000/svg">
<path d="M30.3683 60C47.1403 60 60.7366 46.5685 60.7366 30C60.7366 13.4315 47.1403 0 30.3683 0C13.5964 0 0 13.4315 0 30C0 46.5685 13.5964 60 30.3683 60Z" fill="#DCDDD7"/>
<path d="M8.43091 30.0016C8.43091 36.444 13.7176 41.669 20.2417 41.669H21.9289V37.3328H20.2417C16.1482 37.3328 12.8178 34.0443 12.8178 30.0016C12.8178 25.9566 16.1482 22.6681 20.2417 22.6681H24.2955V45.3346C24.2955 47.7276 26.2584 49.6663 28.6823 49.6663V18.3341H20.2417C13.7176 18.3341 8.43091 23.5569 8.43091 30.0016ZM40.4931 18.3341H38.8058V22.6703H40.4931C44.5866 22.6703 47.917 25.9588 47.917 30.0016C47.917 34.0465 44.5866 37.335 40.4931 37.335H36.4393V14.6685C36.4393 12.2755 34.4763 10.3368 32.0502 10.3368V41.669H40.4931C47.0149 41.669 52.3039 36.4462 52.3039 30.0016C52.3039 23.5613 47.0149 18.3341 40.4931 18.3341Z" fill="#002B31"/>
</svg>
