<svg width="61" viewBox="0 0 61 60" fill="none" xmlns="http://www.w3.org/2000/svg">
<g clip-path="url(#clip0_6001_1331)">
<path d="M26.9229 25.1472C24.69 25.1472 22.776 26.6153 22.2656 28.7855H31.644C31.0698 26.6153 29.1559 25.1472 26.9229 25.1472Z" fill="#DCDDD7"/>
<path d="M47.2746 25.0845C44.6589 25.0845 42.4897 27.1909 42.4897 29.8717C42.4897 32.4887 44.6589 34.6589 47.2746 34.6589C49.8904 34.6589 52.0595 32.5526 52.0595 29.8717C52.0595 27.1909 49.8904 25.0845 47.2746 25.0845ZM47.2746 31.5951C46.3177 31.5951 45.5521 30.8292 45.5521 29.8717C45.5521 28.9143 46.3177 28.1483 47.2746 28.1483C48.2316 28.1483 48.9972 28.9143 48.9972 29.8717C48.9972 30.7653 48.2316 31.5951 47.2746 31.5951Z" fill="#DCDDD7"/>
<path d="M30.3681 -0.000732422C13.5891 -0.000732422 0 13.4035 0 29.9993C0 46.595 13.5891 59.9993 30.3681 59.9993C47.1471 59.9993 60.7362 46.595 60.7362 29.9993C60.8 13.4035 47.1471 -0.000732422 30.3681 -0.000732422ZM19.3948 36.7014C19.1396 36.7014 18.8844 36.5737 18.693 36.3822L13.5891 31.3397L8.4852 36.4461C8.29381 36.6376 8.03861 36.7014 7.78342 36.7014C7.20923 36.7014 6.82644 36.2546 6.82644 35.7439C6.82644 35.4886 6.95404 35.2333 7.14544 35.0418L12.2493 29.9354L7.14544 24.8291C6.95404 24.6376 6.82644 24.3822 6.82644 24.1269C6.82644 23.5525 7.27303 23.1695 7.78342 23.1695C8.03861 23.1695 8.29381 23.2971 8.4852 23.4248L13.5891 28.5312L18.693 23.4248C18.8844 23.2333 19.1396 23.1056 19.3948 23.1056C19.9689 23.1056 20.4155 23.5525 20.4155 24.0631C20.4155 24.3184 20.2879 24.5737 20.0965 24.7652L14.9927 29.8716L20.0965 34.978C20.2879 35.1695 20.4155 35.4248 20.4155 35.6801C20.3517 36.2546 19.9051 36.7014 19.3948 36.7014ZM33.3028 30.0631C32.9838 30.5099 32.4097 30.7014 31.7079 30.7652H22.1381V30.8291C22.2019 31.0844 22.2657 31.3397 22.3295 31.595C22.9037 33.1269 24.4348 34.7865 26.923 34.7865C27.6886 34.7865 28.4541 34.595 29.1559 34.212C29.6663 33.9567 30.1129 33.5737 30.4957 33.1269C30.6233 32.9993 30.6871 32.8716 30.8147 32.7439C31.0699 32.361 31.3889 32.2971 31.6441 32.2971C31.8355 32.2971 32.0907 32.361 32.2821 32.5525C32.4734 32.6801 32.601 32.9354 32.6648 33.1908C32.7286 33.5099 32.601 33.8291 32.4097 34.0205L32.3459 34.0844C31.7717 34.7865 31.1975 35.361 30.6233 35.7439C29.9853 36.1269 29.2835 36.4461 28.5817 36.6376C28.0076 36.7652 27.4972 36.8291 26.923 36.8291C26.6678 36.8291 26.4126 36.8291 26.0936 36.7652C23.2865 36.4461 20.9897 34.4035 20.2879 31.6588C20.1603 31.1482 20.0965 30.5737 20.0965 29.9993C20.0965 27.7652 21.1811 25.6588 22.9675 24.3822C24.1158 23.5525 25.5194 23.1056 26.923 23.1056C28.1989 23.1056 29.4749 23.4886 30.5595 24.1269C32.1545 25.1482 33.1752 26.6801 33.558 28.595C33.7494 29.1695 33.6218 29.6801 33.3028 30.0631ZM39.5551 25.212C37.5773 25.4674 37.3859 26.4248 37.3859 28.6588V35.6163C37.3859 36.1269 36.9393 36.5737 36.429 36.5737C35.9186 36.5737 35.472 36.1269 35.472 35.6163V24.2546C35.472 23.6801 35.9186 23.2971 36.429 23.2971C36.8755 23.2971 37.2583 23.5525 37.3859 23.9993C38.0877 23.4886 38.8533 23.2333 39.6827 23.2333H39.9379C40.5121 23.2333 40.9587 23.6801 40.9587 24.1908C40.9587 24.7014 40.5121 25.1482 39.9379 25.1482C39.8741 25.1482 39.6827 25.1482 39.5551 25.212ZM47.2747 36.6376C43.5106 36.6376 40.4483 33.5737 40.4483 29.8716C40.4483 26.1056 43.5106 23.1056 47.2747 23.1056C51.0388 23.1056 54.1012 26.1695 54.1012 29.8716C54.1012 33.5737 51.0388 36.6376 47.2747 36.6376Z" fill="#DCDDD7"/>
</g>
<defs>
<clipPath id="clip0_6001_1331">
<rect width="60.8" height="60" fill="white"/>
</clipPath>
</defs>
</svg>
