<svg width="126" viewBox="0 0 126 18" fill="none" xmlns="http://www.w3.org/2000/svg">
<g opacity="0.7" clip-path="url(#clip0_2170_3860)">
<path d="M0.491143 5.52962H2.75796L3.28688 3.01267L6.64932 1.90674L5.89371 5.52962H8.68945L8.19831 7.85589H5.40257L4.26916 13.1567C4.1936 13.4237 4.11804 13.8813 4.11804 14.3389C4.11804 15.0635 4.60919 15.5211 5.32701 15.5211C5.89371 15.5211 6.46042 15.4067 6.83822 15.2542L6.30929 17.6949C5.78037 17.8093 5.17589 17.9618 4.60919 17.9618C2.49349 17.9618 0.982285 17.1228 0.982285 14.7966C0.982285 13.8432 1.17119 12.9279 1.39787 11.9745L2.26681 7.85589H0L0.491143 5.52962Z" fill="white"/>
<path d="M81.6431 15.8262H81.6053C80.5475 17.1991 79.4518 17.9618 77.7139 17.9618C75.5605 17.9618 74.0115 16.7415 74.0115 14.4915C74.0115 10.4872 78.4318 10.1821 81.3786 10.1821H82.4742C82.5498 9.83892 82.5498 9.4957 82.5498 9.15248C82.5498 7.93214 81.2275 7.58892 80.1319 7.58892C78.7718 7.58892 77.4117 7.93214 76.165 8.54231L76.6183 6.02536C77.9406 5.56773 79.3007 5.30078 80.6986 5.30078C83.1165 5.30078 85.3833 6.1779 85.3833 9.03807C85.3833 10.6779 84.1744 15.4448 83.9099 17.733H81.2653L81.6431 15.8262ZM78.5829 15.6737C80.9253 15.6737 81.6431 14.0338 82.1342 12.0889H81.0386C79.5274 12.0889 76.9961 12.3559 76.9961 14.4152C76.9961 15.216 77.7895 15.6737 78.5829 15.6737Z" fill="white"/>
<path d="M9.97408 5.52975H13.1098L10.5408 17.6569H7.40503L9.97408 5.52975ZM11.1075 0.305176H14.2432L13.601 3.31789H10.4652L11.1075 0.305176Z" fill="white"/>
<path d="M22.5549 8.31349C21.9504 7.894 21.1192 7.70332 20.2503 7.70332C17.7568 7.70332 16.3589 10.0677 16.3589 12.3559C16.3589 13.9194 16.8878 15.5211 19.0035 15.5211C19.7591 15.5211 20.7414 15.2923 21.5348 14.9109L21.1948 17.4279C20.2503 17.8855 19.1924 17.9999 18.1723 17.9999C15.0744 17.9999 13.072 15.9025 13.072 12.7754C13.072 8.54231 15.8678 5.30078 20.1747 5.30078C21.3459 5.30078 22.4793 5.5296 23.3105 5.75841L22.5549 8.31349Z" fill="white"/>
<path d="M25.993 0H29.1287L27.0508 9.95339H27.0886L31.4711 5.52966H35.5136L29.771 11.0593L33.3601 17.6949H29.8466L26.7486 11.25H26.7108L25.3507 17.6949H22.2905L25.993 0Z" fill="white"/>
<path d="M46.8097 5.52962H49.0766L49.6055 3.01267L52.9679 1.90674L52.2123 5.52962H55.0081L54.5169 7.85589H51.7212L50.5878 13.1567C50.5122 13.4237 50.4366 13.8813 50.4366 14.3389C50.4366 15.0635 50.9278 15.5211 51.6456 15.5211C52.2123 15.5211 52.779 15.4067 53.1568 15.2542L52.6279 17.6949C52.099 17.8093 51.4945 17.9618 50.9278 17.9618C48.8121 17.9618 47.3009 17.1228 47.3009 14.7966C47.3009 13.8432 47.4898 12.9279 47.7165 11.9745L48.5854 7.85589H46.3186L46.8097 5.52962Z" fill="white"/>
<path d="M45.7518 9.8771C45.7518 6.78812 43.7873 5.2627 40.8404 5.2627C36.8735 5.2627 34.0022 8.88558 34.0022 12.661C34.0022 16.2839 36.3446 17.9618 39.7826 17.9618C41.0671 17.9618 42.3894 17.6568 43.5984 17.2754L44.014 14.7585C42.8428 15.2924 41.596 15.6356 40.3115 15.6356C38.3091 15.6356 37.138 14.911 36.9868 13.0042C36.9868 12.8898 36.9868 12.7754 36.9868 12.661C36.9868 12.6229 36.9868 12.6229 36.9868 12.5847V12.5466C36.9868 11.7076 37.1757 10.9068 37.478 10.1441C38.0825 8.58049 38.9136 7.5127 40.7649 7.5127C42.0872 7.5127 42.7672 8.23727 42.7672 9.53388C42.7672 9.80083 42.7294 10.0678 42.6916 10.3729H38.4225C38.158 11.3263 38.0825 11.9746 38.0825 12.5466H45.4496C45.6385 11.6695 45.7518 10.7924 45.7518 9.8771Z" fill="white"/>
<path d="M56.3683 6.86439C56.4438 6.40676 56.5572 5.911 56.6327 5.52964H59.5418L59.2773 7.16947H59.3151C60.1463 5.911 61.5441 5.2627 63.0176 5.2627C64.4532 5.2627 65.9266 6.10168 66.0778 7.58897H66.1156C66.9089 6.02541 68.6468 5.2627 70.3469 5.2627C72.1604 5.2627 73.6716 6.74998 73.6716 8.58049C73.6716 9.64829 73.4071 10.9068 73.1427 11.8983L71.8959 17.6949H68.7602L70.0069 11.7839C70.158 11.0593 70.4225 9.91524 70.4225 9.19066C70.4225 8.31354 69.7424 7.74151 68.9491 7.74151C66.7578 7.74151 66.2289 10.2966 65.8511 11.9364L64.6043 17.6949H61.4686L62.7153 11.7839C62.8665 11.0593 63.1309 9.91524 63.1309 9.19066C63.1309 8.31354 62.4509 7.74151 61.6575 7.74151C59.5418 7.74151 58.9373 10.2966 58.5595 11.9364L57.3128 17.6949H54.177L56.3683 6.86439Z" fill="white"/>
<path d="M94.715 8.00841C94.375 7.81773 93.506 7.55078 92.6371 7.55078C91.6926 7.55078 90.5214 7.81773 90.5214 8.77112C90.5214 10.2965 94.6017 10.8686 94.6017 13.8432C94.6017 17.0084 91.8815 17.9618 89.1991 17.9618C87.9524 17.9618 86.6678 17.7711 85.5344 17.2372L86.2145 14.7203C87.0834 15.216 87.9901 15.6737 89.1991 15.6737C90.257 15.6737 91.3526 15.3304 91.3526 14.3389C91.3526 12.394 87.2723 12.2033 87.2723 9.15248C87.2723 6.29231 89.9925 5.30078 92.486 5.30078C93.6194 5.30078 94.7906 5.52959 95.4328 5.68214L94.715 8.00841Z" fill="white"/>
<path d="M96.7175 5.52962H98.9843L99.5132 3.01267L102.876 1.90674L102.12 5.52962H104.916L104.425 7.85589H101.629L100.495 13.1567C100.42 13.4237 100.344 13.8813 100.344 14.3389C100.344 15.0635 100.836 15.5211 101.553 15.5211C102.12 15.5211 102.687 15.4067 103.065 15.2542L102.536 17.6949C102.007 17.8093 101.402 17.9618 100.836 17.9618C98.7198 17.9618 97.2086 17.1228 97.2086 14.7966C97.2086 13.8432 97.3975 12.9279 97.5864 11.9745L98.4931 7.85589H96.2263L96.7175 5.52962Z" fill="white"/>
<path d="M117.95 7.16947C118.025 6.63558 118.139 6.10168 118.214 5.52964H121.199L120.783 7.81778H120.821C121.388 6.48303 122.937 5.2627 124.372 5.2627C124.788 5.2627 125.204 5.30083 125.581 5.3771L124.939 8.46609C124.599 8.35168 124.146 8.27541 123.73 8.27541C121.501 8.27541 120.443 10.2966 120.028 12.2415L118.894 17.6949H115.759L117.95 7.16947Z" fill="white"/>
<path d="M115.797 9.8771C115.797 6.78812 113.832 5.2627 110.885 5.2627C106.956 5.2627 104.047 8.88558 104.047 12.661C104.047 16.2839 106.389 17.9618 109.827 17.9618C111.112 17.9618 112.434 17.6568 113.643 17.2754L114.059 14.7585C112.887 15.2924 111.641 15.6356 110.356 15.6356C108.354 15.6356 107.183 14.911 107.032 13.0042C107.032 12.8898 107.032 12.7754 107.032 12.661C107.032 12.6229 107.032 12.6229 107.032 12.5847V12.5466C107.032 11.7076 107.22 10.9068 107.523 10.1441C108.127 8.58049 108.958 7.5127 110.81 7.5127C112.132 7.5127 112.812 8.23727 112.812 9.53388C112.812 9.80083 112.774 10.0678 112.736 10.3729H108.467C108.203 11.3263 108.127 11.9746 108.127 12.5466H115.494C115.683 11.6695 115.797 10.7924 115.797 9.8771Z" fill="white"/>
</g>
<defs>
<clipPath id="clip0_2170_3860">
<rect width="125.581" height="18" fill="white"/>
</clipPath>
</defs>
</svg>
