<svg width="97" viewBox="0 0 97 18" fill="none" xmlns="http://www.w3.org/2000/svg">
<g opacity="0.7">
<path d="M13.0515 6.27474V6.14924C13.0515 4.5178 12.5495 3.13735 11.5456 2.19614C10.4161 1.12943 8.72192 0.5647 6.714 0.5647H0V17.5693H3.82761V12.0475H6.02377L9.28665 17.5693H13.6162L9.85138 11.2945C11.2946 10.6043 13.0515 9.22387 13.0515 6.27474ZM9.2239 6.33748C9.2239 7.90617 8.15719 8.84739 6.40026 8.84739H3.82761V3.89033H6.40026C8.21994 3.89033 9.2239 4.70604 9.2239 6.33748ZM66.8262 0.501953L60.426 17.5693H64.2536L65.5713 13.9299H71.5323L72.85 17.5693H76.8031L70.4028 0.501953H66.8262ZM70.3401 10.7298H66.7007L68.5204 5.52176L70.3401 10.7298ZM87.9094 8.91014L92.992 0.627449H88.7879L85.776 6.02374L82.8269 0.627449H78.4345L83.4544 8.97288L78.1835 17.6321H82.3876L85.5878 11.922L88.7879 17.6321H93.1175L87.9094 8.91014ZM20.895 14.3064V10.6671H27.7345V7.40419H20.895V3.89033H28.6129V0.5647H17.1301V17.5693H24.2833L26.0403 14.3064H20.895ZM53.5237 0.5647L49.6961 6.08649L45.8058 0.5647H45.743L41.8527 7.96892V17.5693H45.5548V7.02771L49.5706 12.2358V12.2985H49.7589L53.8375 7.02771V17.5693H57.5396V0.5647H53.5237Z" fill="white"/>
<path d="M37.1467 0.564453L28.1738 17.5691H32.8172L41.7901 0.564453H37.1467Z" fill="white"/>
</g>
</svg>
