<svg width="61" viewBox="0 0 61 32" fill="none" xmlns="http://www.w3.org/2000/svg">
<g opacity="0.7" clip-path="url(#clip0_2170_3822)">
<path fill-rule="evenodd" clip-rule="evenodd" d="M19.2193 2.08911C19.2193 1.74299 19.4999 1.4624 19.8461 1.4624H24.8598C25.2059 1.4624 25.4865 1.74299 25.4865 2.08911V5.1748L25.4861 5.22092C25.4861 5.22142 25.486 5.22184 25.4857 5.22209C25.4854 5.22243 25.485 5.22268 25.4845 5.22268C25.4835 5.22268 25.4827 5.22343 25.4827 5.22443V18.3576C25.4827 18.404 25.4839 18.4494 25.4861 18.4937V18.7897C25.4861 20.4512 25.8461 21.8312 26.4336 22.9533C26.6747 23.414 26.365 24.0248 25.8449 24.0248H25.806C22.3796 24.0248 20.4724 22.0844 20.4724 18.9119V5.84922C20.4724 5.50319 20.1919 5.22268 19.8459 5.22268C19.4999 5.22268 19.2193 4.94216 19.2193 4.59613V2.08911ZM53.7666 20.2238C52.0878 20.6114 50.4898 19.8292 49.8268 19.0586C49.601 18.7962 49.7952 18.455 50.1325 18.3771L59.2321 16.2763C60.2439 16.0427 60.8712 15.0183 60.6377 14.0065C59.5678 9.37226 55.693 6.51195 50.7981 7.64204C46.3565 8.66742 43.4384 12.8457 44.57 17.7473C45.6605 22.4707 49.847 25.1652 54.7117 24.0421C57.1106 23.4882 59.3267 22.1426 60.351 19.7951C60.5185 19.4111 60.2172 19.0069 59.7983 19.0073L56.2902 19.0103C56.1169 19.0104 55.9534 19.0845 55.8253 19.2011C55.2744 19.7031 54.5482 20.0434 53.7666 20.2238ZM51.628 11.2365C49.9101 11.6332 48.9504 12.9047 48.7468 14.1556C48.6852 14.5341 49.0506 14.8042 49.4243 14.718L55.0863 13.4107C55.4559 13.3254 55.6683 12.9289 55.4574 12.6137C54.6997 11.481 53.2238 10.8682 51.628 11.2365ZM37.9642 22.305C37.3088 23.3573 36.1649 24.4121 33.9241 24.4121C30.1383 24.4121 27.9976 21.9789 27.9976 18.5909V8.37579C27.9976 8.02968 28.2782 7.74908 28.6243 7.74908H32.3863C32.7324 7.74908 33.013 8.02968 33.013 8.37579V17.1124C33.013 18.8065 33.8158 19.9769 35.5307 19.9769C37.278 19.9769 38.0129 18.5909 38.0129 16.866V8.37579C38.0129 8.02968 38.2935 7.74908 38.6397 7.74908H42.4017C42.7478 7.74908 43.0284 8.02968 43.0284 8.37579V23.385C43.0284 23.7312 42.7478 24.0118 42.4017 24.0118H38.8985C38.5524 24.0118 38.2718 23.7312 38.2718 23.385V22.3906C38.2718 22.2993 38.1979 22.2253 38.1065 22.2253C38.0485 22.2253 37.9949 22.2557 37.9642 22.305ZM9.19194 31.7248C15.2002 31.7248 17.9659 28.2726 17.9659 23.9805V8.3722C17.9659 8.02609 17.6853 7.74549 17.3392 7.74549H13.6652C13.3191 7.74549 13.0385 8.02609 13.0385 8.3722V9.4478C13.0385 9.5383 12.9652 9.61158 12.8747 9.61158C12.8184 9.61158 12.7663 9.58259 12.7348 9.53588C12.1795 8.71522 10.6346 7.34121 7.98389 7.34121C3.69232 7.34121 0.417969 10.6069 0.417969 15.863C0.417969 21.1503 3.7559 24.3538 8.11107 24.3538C10.706 24.3538 12.1601 22.9734 12.7653 22.1534C12.7976 22.1096 12.8483 22.0833 12.9027 22.0833C12.9953 22.0833 13.0703 22.1584 13.0703 22.2509V23.9805C13.0703 26.5309 11.7669 27.8371 9.19194 27.8371C7.33336 27.8371 6.27372 27.1474 5.8717 26.1633C5.75689 25.8823 5.50587 25.66 5.20229 25.66H1.87194C1.51338 25.66 1.2247 25.9614 1.28209 26.3153C1.74924 29.1961 4.34324 31.7248 9.19194 31.7248ZM8.95337 20.263C11.1854 20.263 12.9947 18.2991 12.9947 15.8764C12.9947 13.4537 11.1854 11.4898 8.95337 11.4898C6.72144 11.4898 4.91206 13.4537 4.91206 15.8764C4.91206 18.2991 6.72144 20.263 8.95337 20.263Z" fill="white"/>
</g>
<defs>
<clipPath id="clip0_2170_3822">
<rect width="61" height="31.7534" fill="white"/>
</clipPath>
</defs>
</svg>
