<svg width="81" viewBox="0 0 81 23" fill="none" xmlns="http://www.w3.org/2000/svg">
<g opacity="0.7" clip-path="url(#clip0_2170_3834)">
<path d="M80.8332 3.61404L77.2654 3.549C77.1837 3.54655 77.1062 3.51253 77.0497 3.45429C76.9932 3.39605 76.9623 3.31827 76.9635 3.23775L76.9821 0.301745C76.9821 0.205737 76.934 0.165475 76.838 0.18096L74.1947 0.62229C74.1567 0.628895 74.1223 0.648409 74.0976 0.677345C74.0729 0.706281 74.0596 0.742752 74.06 0.78024L74.0042 3.3446C73.998 3.57068 73.8819 3.69611 73.6558 3.72089L72.8196 3.81845C72.7038 3.83122 72.5971 3.88701 72.5205 3.97477C72.4439 4.06254 72.4031 4.17586 72.4062 4.29229L72.4387 5.57447C72.4418 5.7603 72.5362 5.8594 72.7221 5.87179C72.9822 5.89037 73.2455 5.86405 73.5118 5.79282C73.5827 5.77285 73.6573 5.77002 73.7294 5.78455C73.8016 5.79908 73.8693 5.83055 73.9269 5.87638C73.9845 5.9222 74.0304 5.98107 74.0609 6.04811C74.0913 6.11516 74.1053 6.18848 74.1018 6.26202C73.9996 8.66223 73.9934 10.8751 74.0832 12.9005C74.2412 16.3801 77.7672 16.0642 80.2525 15.4556C80.4786 15.403 80.5839 15.2605 80.5684 15.0282L80.4709 13.5695C80.4523 13.2815 80.3036 13.1715 80.0249 13.2397C78.7195 13.5556 77.0239 13.9737 76.996 11.911C76.9712 9.91963 76.9557 7.99017 76.9495 6.12265C76.9495 6.05199 76.9773 5.98415 77.0268 5.93375C77.0763 5.88335 77.1437 5.85443 77.2143 5.85321L80.8332 5.82069" stroke="white" stroke-width="0.929115"/>
<path d="M0 22.1543L2.6201 21.7734C2.72118 21.7598 2.8138 21.7093 2.88054 21.6315C2.94727 21.5536 2.98352 21.4537 2.98246 21.3506C2.92671 17.1479 2.93291 12.9359 3.00104 8.71466C3.02582 7.17853 3.66226 6.21689 4.91037 5.82976C8.664 4.65908 9.21217 8.99804 8.54786 11.5067C8.30938 12.4048 7.68378 13.0552 6.67105 13.4578C6.61302 13.4813 6.54815 13.4813 6.49008 13.4579C6.43202 13.4346 6.38531 13.3895 6.35979 13.3324C6.22352 13.0289 6.24056 12.7331 6.41089 12.4451C6.47903 12.3305 6.45115 12.2499 6.32727 12.2035C6.20029 12.157 6.0857 12.1741 5.9835 12.2546C5.02341 13.0289 4.07727 13.7582 3.14505 14.4427C3.00878 14.5418 3.00724 14.644 3.14041 14.7493L5.8302 16.8723C6.13371 17.1108 6.28701 17.0364 6.29011 16.6493L6.29475 16.1522C6.29785 15.9602 6.39541 15.8565 6.58743 15.841C9.44445 15.6133 11.535 13.5739 11.7626 10.7169C12.0924 6.5777 10.434 3.29792 5.83949 3.27934C5.05593 3.27624 4.24915 3.43419 3.41914 3.75319C3.2519 3.81823 3.10479 3.79035 2.97781 3.66957L2.7827 3.48375C2.68994 3.39419 2.56556 3.34278 2.43428 3.33973C1.59188 3.31496 0.780457 3.428 0 3.67886" stroke="white" stroke-width="0.929115"/>
<path d="M17.3928 4.99863C17.1327 5.33621 16.9624 5.2944 16.8818 4.8732C16.8137 4.49226 16.7936 4.10823 16.8214 3.7211C16.8266 3.65132 16.8154 3.5813 16.7888 3.51658C16.7622 3.45187 16.7209 3.39424 16.6682 3.34826C16.6154 3.30228 16.5527 3.26921 16.485 3.25168C16.4172 3.23415 16.3463 3.23263 16.2779 3.24725L14.7542 3.56315C14.4228 3.63438 14.2571 3.83878 14.2571 4.17636V15.2468C14.2571 15.4419 14.3546 15.5394 14.5498 15.5394H16.8121C17.0011 15.5363 17.0955 15.4419 17.0955 15.2561C17.0862 13.339 17.0754 11.329 17.063 9.2261C17.0491 7.27031 19.1303 5.91845 20.8631 6.02995C21.1852 6.04853 21.3493 5.89677 21.3555 5.57468L21.3834 3.98589C21.3896 3.65761 21.2285 3.47798 20.9003 3.44701C19.4601 3.31693 18.291 3.83414 17.3928 4.99863Z" stroke="white" stroke-width="0.929115"/>
<path d="M34.836 8.78491C34.8585 7.35341 34.3114 5.97161 33.3151 4.94349C32.3187 3.91537 30.9548 3.32515 29.5233 3.30266L28.4828 3.28631C27.0513 3.26382 25.6695 3.81091 24.6414 4.80723C23.6132 5.80355 23.023 7.16749 23.0005 8.59899L22.9738 10.2991C22.9513 11.7306 23.4984 13.1124 24.4948 14.1405C25.4911 15.1686 26.855 15.7588 28.2865 15.7813L29.327 15.7977C30.7585 15.8202 32.1403 15.2731 33.1684 14.2768C34.1966 13.2804 34.7868 11.9165 34.8093 10.485L34.836 8.78491Z" stroke="white" stroke-width="0.929115"/>
<path d="M40.37 4.55234C40.2616 4.30767 40.2214 4.04443 40.2493 3.76259C40.2864 3.37546 40.113 3.21442 39.7289 3.27945L38.0844 3.55819C37.7902 3.60774 37.6431 3.78118 37.6431 4.07849L37.6292 15.2743C37.6292 15.4694 37.7267 15.5655 37.9218 15.5624L40.2121 15.5438C40.4475 15.5407 40.5652 15.4214 40.5652 15.1861L40.5698 7.30252C40.5698 7.10121 40.6519 6.94017 40.816 6.81938C42.1493 5.83917 45.2386 4.66384 45.2804 7.55803C45.3176 10.1038 45.3331 12.6217 45.3269 15.1117C45.3238 15.375 45.4538 15.5066 45.7171 15.5066L47.8122 15.5252C48.0755 15.5283 48.2071 15.3982 48.2071 15.135L48.2211 7.30717C48.221 7.18235 48.2552 7.05977 48.3198 6.95256C48.3845 6.84535 48.4772 6.75756 48.5881 6.6986C49.4893 6.21546 50.9248 5.43965 51.9422 5.82058C52.5771 6.05596 52.9023 6.55768 52.9177 7.32575C52.9611 9.78791 52.9812 12.4235 52.9781 15.2325C52.9781 15.4648 53.0943 15.5778 53.3265 15.5716L55.4217 15.5252C55.685 15.5221 55.8166 15.3874 55.8166 15.121C55.8228 12.2655 55.8104 9.53859 55.7794 6.94017C55.7639 5.42261 55.1027 4.32006 53.7958 3.63252C51.905 2.63836 49.6101 3.79511 47.9795 4.94257C47.8153 5.05716 47.6822 5.03084 47.58 4.8636C46.0144 2.31317 42.7532 3.20977 40.7277 4.65454C40.5667 4.76914 40.4475 4.73507 40.37 4.55234Z" stroke="white" stroke-width="0.929115"/>
<path d="M62.0325 3.55393C61.9923 3.45482 61.9226 3.38359 61.8235 3.34023C61.65 3.25971 61.4673 3.24112 61.2753 3.28448C60.6962 3.40836 60.1309 3.50592 59.5797 3.57715C59.4937 3.58841 59.4148 3.63087 59.3576 3.69666C59.3003 3.76245 59.2687 3.84709 59.2684 3.93486L59.1987 21.9783C59.1987 22.1703 59.2932 22.2477 59.4821 22.2106L61.8978 21.7274C61.979 21.7104 62.0518 21.6661 62.1043 21.6018C62.1567 21.5376 62.1855 21.4573 62.1858 21.3744L62.1533 15.6835C62.1534 15.6332 62.1658 15.5837 62.1895 15.5394C62.2132 15.4951 62.2474 15.4572 62.2892 15.4292C62.331 15.4012 62.379 15.3839 62.429 15.3789C62.479 15.3738 62.5295 15.3811 62.5761 15.4001C64.1525 16.0288 65.8713 16.018 67.7327 15.3676C70.9102 14.262 71.5188 10.2714 70.7709 7.33542C69.8185 3.5818 65.8605 2.51796 62.4878 3.75369C62.271 3.83421 62.1192 3.76762 62.0325 3.55393Z" stroke="white" stroke-width="0.929115"/>
<path d="M28.9534 13.5879C29.7629 13.5808 30.5355 13.1512 31.1013 12.3935C31.6671 11.6358 31.9797 10.6121 31.9704 9.54765C31.9611 8.48317 31.6307 7.4651 31.0517 6.71739C30.4728 5.96967 29.6928 5.55358 28.8834 5.56064C28.0739 5.56771 27.3013 5.99735 26.7356 6.75504C26.1698 7.51274 25.8571 8.53642 25.8664 9.60089C25.8757 10.6654 26.2061 11.6834 26.7851 12.4312C27.364 13.1789 28.144 13.595 28.9534 13.5879Z" stroke="white" stroke-width="0.929115"/>
<path d="M67.9836 8.42484C67.9879 8.07591 67.9234 7.72955 67.7938 7.40555C67.6642 7.08154 67.4721 6.78624 67.2283 6.53649C66.9846 6.28674 66.6941 6.08744 66.3734 5.94997C66.0526 5.8125 65.7079 5.73955 65.359 5.73529L64.941 5.73018C64.592 5.72591 64.2457 5.79042 63.9217 5.92001C63.5977 6.0496 63.3024 6.24174 63.0526 6.48546C62.8029 6.72917 62.6036 7.0197 62.4661 7.34044C62.3286 7.66118 62.2557 8.00586 62.2514 8.35479L62.2224 10.7331C62.2181 11.0821 62.2826 11.4284 62.4122 11.7524C62.5418 12.0764 62.7339 12.3717 62.9776 12.6215C63.2214 12.8712 63.5119 13.0705 63.8326 13.208C64.1534 13.3455 64.498 13.4184 64.847 13.4227L65.265 13.4278C65.614 13.4321 65.9603 13.3676 66.2843 13.238C66.6083 13.1084 66.9036 12.9162 67.1534 12.6725C67.4031 12.4288 67.6024 12.1383 67.7399 11.8175C67.8774 11.4968 67.9503 11.1521 67.9546 10.8032L67.9836 8.42484Z" stroke="white" stroke-width="0.929115"/>
<path d="M80.8332 3.61404V5.82069L77.2143 5.85321C77.1437 5.85443 77.0763 5.88335 77.0268 5.93375C76.9773 5.98415 76.9495 6.05199 76.9495 6.12265C76.9557 7.99017 76.9712 9.91963 76.996 11.911C77.0239 13.9737 78.7195 13.5556 80.0249 13.2397C80.3036 13.1715 80.4523 13.2815 80.4709 13.5695L80.5684 15.0282C80.5839 15.2605 80.4786 15.403 80.2525 15.4556C77.7672 16.0642 74.2412 16.3801 74.0832 12.9005C73.9934 10.8751 73.9996 8.66223 74.1018 6.26202C74.1053 6.18848 74.0913 6.11516 74.0609 6.04811C74.0304 5.98107 73.9845 5.9222 73.9269 5.87638C73.8693 5.83055 73.8016 5.79908 73.7294 5.78455C73.6573 5.77002 73.5827 5.77285 73.5118 5.79282C73.2455 5.86405 72.9822 5.89037 72.7221 5.87179C72.5362 5.8594 72.4418 5.7603 72.4387 5.57447L72.4062 4.29229C72.4031 4.17586 72.4439 4.06254 72.5205 3.97477C72.5971 3.88701 72.7038 3.83122 72.8196 3.81845L73.6558 3.72089C73.8819 3.69611 73.998 3.57068 74.0042 3.3446L74.06 0.78024C74.0596 0.742752 74.0729 0.706281 74.0976 0.677345C74.1223 0.648409 74.1567 0.628895 74.1947 0.62229L76.838 0.18096C76.934 0.165475 76.9821 0.205737 76.9821 0.301745L76.9635 3.23775C76.9623 3.31827 76.9932 3.39605 77.0497 3.45429C77.1062 3.51253 77.1837 3.54655 77.2654 3.549L80.8332 3.61404Z" fill="white"/>
<path d="M0 22.1548V3.67935C0.780457 3.42849 1.59188 3.31545 2.43428 3.34022C2.56556 3.34327 2.68994 3.39468 2.7827 3.48424L2.97781 3.67006C3.10479 3.79084 3.2519 3.81872 3.41914 3.75368C4.24915 3.43468 5.05593 3.27673 5.83949 3.27983C10.434 3.29841 12.0924 6.57819 11.7626 10.7174C11.535 13.5744 9.44445 15.6138 6.58743 15.8415C6.39541 15.8569 6.29785 15.9607 6.29475 16.1527L6.29011 16.6498C6.28701 17.0369 6.13371 17.1113 5.8302 16.8728L3.14041 14.7498C3.00724 14.6445 3.00878 14.5423 3.14505 14.4431C4.07727 13.7587 5.02341 13.0293 5.9835 12.2551C6.0857 12.1746 6.20029 12.1575 6.32727 12.204C6.45115 12.2504 6.47903 12.331 6.41089 12.4455C6.24056 12.7336 6.22352 13.0293 6.35979 13.3329C6.38531 13.39 6.43202 13.435 6.49008 13.4584C6.54815 13.4818 6.61302 13.4818 6.67105 13.4583C7.68378 13.0557 8.30938 12.4053 8.54786 11.5071C9.21217 8.99853 8.664 4.65957 4.91037 5.83025C3.66226 6.21738 3.02582 7.17902 3.00104 8.71515C2.93291 12.9364 2.92671 17.1484 2.98246 21.3511C2.98352 21.4542 2.94727 21.5541 2.88054 21.632C2.8138 21.7098 2.72118 21.7603 2.6201 21.7739L0 22.1548Z" fill="white"/>
<path d="M17.3928 4.99863C18.291 3.83414 19.4601 3.31693 20.9003 3.44701C21.2285 3.47798 21.3896 3.65761 21.3834 3.98589L21.3555 5.57468C21.3493 5.89677 21.1852 6.04853 20.8631 6.02995C19.1303 5.91845 17.0491 7.27031 17.063 9.2261C17.0754 11.329 17.0862 13.339 17.0955 15.2561C17.0955 15.4419 17.0011 15.5363 16.8121 15.5394H14.5498C14.3546 15.5394 14.2571 15.4419 14.2571 15.2468V4.17636C14.2571 3.83878 14.4228 3.63438 14.7542 3.56315L16.2779 3.24725C16.3463 3.23263 16.4172 3.23415 16.485 3.25168C16.5527 3.26921 16.6154 3.30228 16.6682 3.34826C16.7209 3.39424 16.7622 3.45187 16.7888 3.51658C16.8154 3.5813 16.8266 3.65132 16.8214 3.7211C16.7936 4.10823 16.8137 4.49226 16.8818 4.8732C16.9624 5.2944 17.1327 5.33621 17.3928 4.99863Z" fill="white"/>
<path d="M34.8093 10.485C34.7868 11.9165 34.1966 13.2804 33.1684 14.2768C32.1403 15.2731 30.7585 15.8202 29.327 15.7977L28.2865 15.7813C26.855 15.7588 25.4911 15.1686 24.4948 14.1405C23.4984 13.1124 22.9513 11.7306 22.9738 10.2991L23.0005 8.59899C23.023 7.16749 23.6132 5.80355 24.6414 4.80723C25.6695 3.81091 27.0513 3.26382 28.4828 3.28631L29.5233 3.30266C30.9548 3.32515 32.3187 3.91537 33.3151 4.94349C34.3114 5.97161 34.8585 7.3534 34.836 8.78491L34.8093 10.485ZM28.9539 13.5882C29.7633 13.5811 30.5359 13.1514 31.1017 12.3937C31.6675 11.6361 31.9801 10.6124 31.9709 9.5479C31.9616 8.48342 31.6311 7.46534 31.0522 6.71763C30.4732 5.96992 29.6933 5.55382 28.8838 5.56088C28.0744 5.56795 27.3018 5.99759 26.736 6.75529C26.1702 7.51298 25.8576 8.53666 25.8668 9.60113C25.8761 10.6656 26.2066 11.6837 26.7855 12.4314C27.3644 13.1791 28.1444 13.5952 28.9539 13.5882Z" fill="white"/>
<path d="M40.7277 4.65503C42.7532 3.21026 46.0144 2.31366 47.58 4.86408C47.6822 5.03132 47.8153 5.05765 47.9795 4.94306C49.6101 3.7956 51.905 2.63885 53.7958 3.63301C55.1027 4.32055 55.7639 5.4231 55.7794 6.94066C55.8104 9.53908 55.8228 12.266 55.8166 15.1215C55.8166 15.3879 55.685 15.5226 55.4217 15.5257L53.3265 15.5721C53.0943 15.5783 52.9781 15.4653 52.9781 15.233C52.9812 12.424 52.9611 9.78839 52.9177 7.32624C52.9023 6.55817 52.5771 6.05645 51.9422 5.82107C50.9248 5.44013 49.4893 6.21595 48.5881 6.69909C48.4772 6.75805 48.3845 6.84584 48.3198 6.95305C48.2552 7.06025 48.221 7.18284 48.2211 7.30766L48.2071 15.1355C48.2071 15.3987 48.0755 15.5288 47.8122 15.5257L45.7171 15.5071C45.4538 15.5071 45.3238 15.3755 45.3269 15.1122C45.3331 12.6222 45.3176 10.1043 45.2804 7.55852C45.2386 4.66432 42.1493 5.83965 40.816 6.81987C40.6519 6.94066 40.5698 7.1017 40.5698 7.30301L40.5652 15.1866C40.5652 15.4219 40.4475 15.5412 40.2121 15.5443L37.9218 15.5628C37.7267 15.5659 37.6292 15.4699 37.6292 15.2748L37.6431 4.07898C37.6431 3.78166 37.7902 3.60823 38.0844 3.55868L39.7289 3.27994C40.113 3.2149 40.2864 3.37595 40.2493 3.76308C40.2214 4.04491 40.2616 4.30816 40.37 4.55283C40.4475 4.73556 40.5667 4.76962 40.7277 4.65503Z" fill="white"/>
<path d="M62.4878 3.75369C65.8605 2.51796 69.8185 3.5818 70.7709 7.33542C71.5188 10.2714 70.9102 14.262 67.7327 15.3676C65.8713 16.018 64.1525 16.0288 62.5761 15.4001C62.5295 15.3811 62.479 15.3738 62.429 15.3789C62.379 15.3839 62.331 15.4012 62.2892 15.4292C62.2474 15.4572 62.2132 15.4951 62.1895 15.5394C62.1658 15.5837 62.1534 15.6332 62.1533 15.6835L62.1858 21.3744C62.1855 21.4573 62.1567 21.5376 62.1043 21.6018C62.0518 21.6661 61.979 21.7104 61.8978 21.7274L59.4821 22.2106C59.2932 22.2477 59.1987 22.1703 59.1987 21.9783L59.2684 3.93486C59.2687 3.84709 59.3003 3.76245 59.3576 3.69666C59.4148 3.63087 59.4937 3.58841 59.5797 3.57715C60.1309 3.50592 60.6962 3.40836 61.2753 3.28448C61.4673 3.24112 61.65 3.25971 61.8235 3.34023C61.9226 3.38359 61.9923 3.45482 62.0325 3.55393C62.1192 3.76762 62.271 3.83421 62.4878 3.75369ZM67.9839 8.42509C67.9882 8.07616 67.9236 7.7298 67.7941 7.40579C67.6645 7.08179 67.4723 6.78648 67.2286 6.53673C66.9849 6.28699 66.6944 6.08769 66.3736 5.95022C66.0529 5.81275 65.7082 5.7398 65.3593 5.73553L64.9412 5.73042C64.5923 5.72616 64.2459 5.79066 63.9219 5.92025C63.5979 6.04984 63.3026 6.24198 63.0529 6.4857C62.8031 6.72942 62.6038 7.01994 62.4663 7.34068C62.3289 7.66142 62.2559 8.0061 62.2517 8.35504L62.2226 10.7334C62.2184 11.0823 62.2829 11.4287 62.4125 11.7527C62.542 12.0767 62.7342 12.372 62.9779 12.6217C63.2216 12.8715 63.5121 13.0708 63.8329 13.2083C64.1536 13.3457 64.4983 13.4187 64.8472 13.4229L65.2653 13.4281C65.6142 13.4323 65.9606 13.3678 66.2846 13.2382C66.6086 13.1086 66.9039 12.9165 67.1537 12.6728C67.4034 12.4291 67.6027 12.1385 67.7402 11.8178C67.8776 11.497 67.9506 11.1524 67.9549 10.8034L67.9839 8.42509Z" fill="white"/>
</g>
<defs>
<clipPath id="clip0_2170_3834">
<rect width="80.833" height="22.2988" fill="white"/>
</clipPath>
</defs>
</svg>
