<svg width="138" viewBox="0 0 138 15" fill="none" xmlns="http://www.w3.org/2000/svg">
<g opacity="0.7" clip-path="url(#clip0_2170_3810)">
<path d="M10.0154 13.6852C9.02078 14.8177 7.27385 14.7802 5.83385 14.7727C3.02078 14.7602 0.927699 12.6827 0.327699 9.7702C0.175391 9.02354 0.120007 8.1027 0.161545 7.0077C0.313853 3.0502 3.07616 0.387705 6.67616 0.232705C9.54001 0.112705 12.2885 1.16771 13.3431 4.3202C13.3482 4.33513 13.3505 4.35102 13.3499 4.36693C13.3493 4.38284 13.3458 4.39847 13.3396 4.4129C13.3334 4.42732 13.3246 4.44026 13.3137 4.45096C13.3028 4.46166 13.29 4.4699 13.2762 4.4752L10.0846 5.7102C9.99847 5.74354 9.93462 5.7152 9.89308 5.6252C9.8077 5.4452 9.7777 5.1977 9.68539 5.0227C8.89308 3.51104 7.7177 2.97187 6.15924 3.4052C4.06385 3.9852 3.51001 6.6427 3.8377 8.7352C4.20001 11.0702 5.83385 12.4077 8.02385 11.7952C8.87924 11.5552 9.46924 10.9744 9.79385 10.0527C9.83539 9.93437 9.7977 9.8752 9.68078 9.8752H6.40155C6.32462 9.8752 6.28616 9.8327 6.28616 9.7477L6.29078 7.1877C6.29078 7.10437 6.32847 7.0627 6.40385 7.0627H13.1539C13.2308 7.0627 13.2692 7.10437 13.2692 7.1877V14.2502C13.2692 14.3752 13.2115 14.4377 13.0962 14.4377L10.2739 14.4427C10.2436 14.4427 10.2146 14.4296 10.1931 14.4062C10.1715 14.3829 10.1591 14.3511 10.1585 14.3177L10.1492 13.7402C10.1462 13.6052 10.1015 13.5869 10.0154 13.6852Z" fill="white"/>
<path d="M112.091 8.20598C112.084 9.06971 111.92 9.92351 111.608 10.7186C111.297 11.5137 110.844 12.2346 110.275 12.84C109.706 13.4454 109.033 13.9236 108.294 14.2471C107.555 14.5707 106.764 14.7334 105.967 14.7258L104.102 14.7082C102.492 14.693 100.953 13.9854 99.8245 12.7412C98.6959 11.4969 98.0697 9.81794 98.0837 8.07355L98.0937 6.83358C98.1007 5.96984 98.2646 5.11604 98.5761 4.32094C98.8877 3.52584 99.3407 2.80499 99.9094 2.19957C100.478 1.59415 101.151 1.116 101.891 0.792424C102.63 0.468851 103.421 0.306189 104.218 0.313727L106.083 0.331377C107.693 0.3466 109.231 1.05416 110.36 2.29839C111.489 3.54262 112.115 5.22161 112.101 6.966L112.091 8.20598ZM103.484 3.69978C101.702 4.73728 101.467 7.48728 102.044 9.38728C102.648 11.3723 104.527 12.2123 106.295 11.5198C108.295 10.7398 108.718 8.01728 108.27 6.06478C107.915 4.51644 107.065 3.60311 105.72 3.32478C104.935 3.16311 104.19 3.28811 103.484 3.69978Z" fill="white"/>
<path d="M18.7732 11.6301L17.9494 14.3726C17.9436 14.3908 17.9327 14.4066 17.9183 14.4178C17.9038 14.429 17.8864 14.4351 17.8686 14.4351L14.4463 14.4451C14.4325 14.4452 14.4188 14.4417 14.4064 14.4348C14.3941 14.4279 14.3835 14.4179 14.3755 14.4056C14.3676 14.3933 14.3625 14.3791 14.3608 14.3642C14.359 14.3493 14.3607 14.3341 14.3656 14.3201L18.9348 0.620063C18.9409 0.602293 18.952 0.587005 18.9664 0.576271C18.9809 0.565538 18.998 0.559879 19.0156 0.560063L23.5225 0.562563C23.54 0.562379 23.5571 0.568038 23.5716 0.578771C23.586 0.589505 23.5971 0.604793 23.6032 0.622563L28.1725 14.3151C28.1773 14.3291 28.179 14.3443 28.1772 14.3592C28.1755 14.3741 28.1704 14.3883 28.1625 14.4006C28.1545 14.4129 28.1439 14.4229 28.1316 14.4298C28.1193 14.4367 28.1056 14.4402 28.0917 14.4401H24.4548C24.4367 14.4399 24.4191 14.4335 24.4046 14.4218C24.3901 14.4101 24.3794 14.3938 24.374 14.3751L23.5732 11.6276C23.5679 11.6089 23.5572 11.5925 23.5426 11.5808C23.5281 11.5691 23.5106 11.5627 23.4925 11.5626L18.854 11.5651C18.8359 11.5652 18.8184 11.5716 18.8039 11.5833C18.7893 11.595 18.7786 11.6114 18.7732 11.6301ZM22.5671 8.69506C22.6579 8.69506 22.6894 8.64756 22.6617 8.55256L21.254 3.71006C21.2263 3.61673 21.1986 3.6159 21.1709 3.70756L19.7286 8.50506C19.6948 8.62173 19.734 8.68006 19.8463 8.68006L22.5671 8.69506Z" fill="white"/>
<path d="M37.8692 8.21505C39.1661 8.47755 39.9577 9.34505 40.26 10.7925C40.4846 11.8709 40.7069 13.0317 40.9269 14.275C40.9469 14.3834 40.9061 14.4375 40.8046 14.4375L37.3753 14.4425C37.2769 14.4425 37.22 14.3892 37.2046 14.2825C37.0169 12.8809 36.8284 11.6917 36.6392 10.715C36.443 9.70005 35.6607 9.33004 34.7584 9.36004C34.1184 9.38171 33.513 9.38505 32.9423 9.37004C32.9272 9.36971 32.9123 9.37264 32.8983 9.37864C32.8843 9.38465 32.8716 9.39362 32.8608 9.40503C32.8501 9.41644 32.8415 9.43005 32.8357 9.44508C32.8299 9.46011 32.8269 9.47625 32.8269 9.49255V14.3125C32.8269 14.3457 32.8147 14.3775 32.7931 14.4009C32.7714 14.4244 32.7421 14.4375 32.7115 14.4375L29.483 14.4425C29.403 14.4425 29.363 14.4 29.363 14.315L29.3653 0.635046C29.3653 0.617568 29.3716 0.600768 29.3828 0.588178C29.394 0.575589 29.4092 0.568193 29.4253 0.567546C31.813 0.550879 34.1769 0.554212 36.5169 0.577546C38.8661 0.600046 40.9223 2.16005 40.5646 4.99005C40.3707 6.51338 39.47 7.53255 37.8623 8.04754C37.653 8.11421 37.6553 8.17005 37.8692 8.21505ZM32.8246 3.60755L32.8292 6.52255C32.8292 6.55106 32.8396 6.5784 32.8583 6.59856C32.8769 6.61872 32.9021 6.63005 32.9284 6.63005L35.3815 6.62505C35.5993 6.62465 35.8149 6.58469 36.0159 6.50743C36.217 6.43018 36.3995 6.31716 36.5532 6.17483C36.7069 6.03249 36.8286 5.86365 36.9115 5.67794C36.9944 5.49223 37.0367 5.29331 37.0361 5.09255V5.01755C37.0349 4.61278 36.8595 4.22508 36.5484 3.93961C36.2373 3.65415 35.816 3.49425 35.3769 3.49505L32.9238 3.50005C32.8975 3.50005 32.8723 3.51137 32.8536 3.53153C32.835 3.55169 32.8246 3.57903 32.8246 3.60755Z" fill="white"/>
<path d="M50.7346 9.2425C50.75 9.1625 50.7677 9.08333 50.7877 9.005C51.5108 6.12667 52.3115 3.33917 53.19 0.6425C53.1972 0.619278 53.2111 0.599084 53.2297 0.58474C53.2483 0.570396 53.2708 0.562621 53.2938 0.5625H58.3846C58.3999 0.5625 58.4146 0.569085 58.4254 0.580806C58.4362 0.592527 58.4423 0.608424 58.4423 0.625V14.375C58.4423 14.3916 58.4362 14.4075 58.4254 14.4192C58.4146 14.4309 58.3999 14.4375 58.3846 14.4375L55.0407 14.4425C55.0248 14.4425 55.0096 14.4357 54.9983 14.4235C54.9871 14.4113 54.9808 14.3947 54.9808 14.3775L54.9784 4.24C54.9784 4.03167 54.95 4.02667 54.8931 4.225L51.9484 14.385C51.9436 14.4011 51.9342 14.4152 51.9218 14.425C51.9093 14.4349 51.8944 14.4402 51.8792 14.44H49.2069C49.1177 14.44 49.06 14.3942 49.0338 14.3025L46.1377 4.2875C46.0715 4.05583 46.0384 4.06083 46.0384 4.3025V14.375C46.0384 14.3922 46.0324 14.4088 46.0215 14.421C46.0107 14.4332 45.9961 14.44 45.9808 14.44H42.6369C42.621 14.44 42.6057 14.4332 42.5945 14.421C42.5832 14.4088 42.5769 14.3922 42.5769 14.375V0.72C42.5769 0.615 42.6246 0.5625 42.72 0.5625H47.9515C48.0361 0.5625 48.0908 0.605833 48.1154 0.6925L50.55 9.25C50.6208 9.50167 50.6823 9.49917 50.7346 9.2425Z" fill="white"/>
<path d="M63.6369 3.6625L63.6346 5.8375C63.6346 5.86402 63.6443 5.88946 63.6616 5.90821C63.6789 5.92696 63.7024 5.9375 63.7269 5.9375H68.6215C68.646 5.9375 68.6694 5.94803 68.6868 5.96679C68.7041 5.98554 68.7138 6.01098 68.7138 6.0375L68.7161 8.6475C68.7161 8.67402 68.7064 8.69946 68.6891 8.71821C68.6717 8.73696 68.6483 8.7475 68.6238 8.7475L63.7269 8.75C63.7024 8.75 63.6789 8.76053 63.6616 8.77929C63.6443 8.79804 63.6346 8.82348 63.6346 8.85L63.6369 11.3375C63.6369 11.364 63.6466 11.3895 63.6639 11.4082C63.6812 11.427 63.7047 11.4375 63.7292 11.4375H70.0615C70.086 11.4375 70.1094 11.448 70.1268 11.4668C70.1441 11.4855 70.1538 11.511 70.1538 11.5375L70.1515 14.34C70.1515 14.3665 70.1418 14.392 70.1244 14.4107C70.1071 14.4295 70.0837 14.44 70.0592 14.44H60.323C60.2985 14.44 60.2751 14.4295 60.2577 14.4107C60.2404 14.392 60.2307 14.3665 60.2307 14.34V0.6625C60.2307 0.635978 60.2404 0.610543 60.2577 0.591789C60.2751 0.573036 60.2985 0.5625 60.323 0.5625H70.0615C70.086 0.5625 70.1094 0.573036 70.1268 0.591789C70.1441 0.610543 70.1538 0.635978 70.1538 0.6625V3.4625C70.1538 3.48902 70.1441 3.51446 70.1268 3.53321C70.1094 3.55196 70.086 3.5625 70.0615 3.5625H63.7292C63.7047 3.5625 63.6812 3.57304 63.6639 3.59179C63.6466 3.61054 63.6369 3.63598 63.6369 3.6625Z" fill="white"/>
<path d="M81.4039 8.38756V0.687559C81.4039 0.654407 81.4161 0.622613 81.4377 0.599171C81.4594 0.575728 81.4887 0.562559 81.5193 0.562559H84.7501C84.7654 0.562559 84.7801 0.569144 84.7909 0.580865C84.8017 0.592586 84.8078 0.608483 84.8078 0.625059V14.3126C84.8078 14.3457 84.7956 14.3775 84.774 14.4009C84.7523 14.4244 84.723 14.4376 84.6924 14.4376L81.4132 14.4401C81.3301 14.4401 81.2662 14.4026 81.2216 14.3276L75.3924 4.58006C75.3232 4.46173 75.2885 4.47256 75.2885 4.61256V14.3751C75.2885 14.4167 75.2693 14.4376 75.2308 14.4376L72.0601 14.4401C72.0289 14.4401 71.9989 14.4269 71.9769 14.4034C71.9548 14.38 71.9424 14.3482 71.9424 14.3151V0.625059C71.9424 0.608483 71.9485 0.592586 71.9593 0.580865C71.9701 0.569144 71.9848 0.562559 72.0001 0.562559L76.4008 0.560059C76.4447 0.559997 76.4881 0.572105 76.5268 0.595264C76.5655 0.618424 76.5984 0.651886 76.6224 0.692559L81.2747 8.42756C81.3608 8.57089 81.4039 8.55756 81.4039 8.38756Z" fill="white"/>
<path d="M90.0877 3.4375L86.1047 3.44C86.082 3.44 86.0603 3.43025 86.0443 3.41291C86.0283 3.39556 86.0193 3.37203 86.0193 3.3475V0.655C86.0193 0.642853 86.0215 0.630824 86.0258 0.619602C86.0301 0.608379 86.0364 0.598182 86.0443 0.589593C86.0522 0.581003 86.0616 0.57419 86.072 0.569541C86.0824 0.564893 86.0935 0.5625 86.1047 0.5625H97.7608C97.772 0.5625 97.7831 0.564893 97.7935 0.569541C97.8039 0.57419 97.8133 0.581003 97.8212 0.589593C97.8291 0.598182 97.8354 0.608379 97.8397 0.619602C97.844 0.630824 97.8462 0.642853 97.8462 0.655V3.3475C97.8462 3.37203 97.8372 3.39556 97.8212 3.41291C97.8052 3.43025 97.7835 3.44 97.7608 3.44H93.7777C93.7551 3.44 93.7334 3.44974 93.7174 3.46709C93.7014 3.48444 93.6924 3.50797 93.6924 3.5325V14.3475C93.6924 14.372 93.6834 14.3956 93.6674 14.4129C93.6513 14.4303 93.6296 14.44 93.607 14.44H90.2585C90.2359 14.44 90.2142 14.4303 90.1981 14.4129C90.1821 14.3956 90.1731 14.372 90.1731 14.3475V3.53C90.1731 3.50547 90.1641 3.48194 90.1481 3.46459C90.1321 3.44725 90.1104 3.4375 90.0877 3.4375Z" fill="white"/>
<path d="M122.024 8.19515C122.225 8.26015 122.469 8.26015 122.663 8.34765C123.666 8.79431 124.286 9.62431 124.523 10.8376C124.748 11.986 124.964 13.1426 125.172 14.3076C125.187 14.3943 125.154 14.4376 125.072 14.4376L121.613 14.4426C121.522 14.4426 121.47 14.3943 121.456 14.2976C121.281 13.076 121.104 11.9451 120.926 10.9051C120.753 9.90848 120.209 9.40098 119.292 9.38265C118.616 9.36765 117.911 9.36598 117.176 9.37765C117.097 9.37931 117.058 9.42181 117.058 9.50515V14.3126C117.058 14.3458 117.046 14.3776 117.024 14.401C117.002 14.4245 116.973 14.4376 116.942 14.4376L113.656 14.4426C113.64 14.4426 113.624 14.4355 113.612 14.4229C113.601 14.4102 113.594 14.393 113.594 14.3751L113.596 0.635147C113.596 0.615919 113.603 0.597478 113.616 0.583882C113.628 0.570286 113.645 0.562647 113.663 0.562647C115.952 0.555981 118.286 0.560147 120.662 0.575147C122.917 0.590147 124.987 1.93015 124.842 4.62515C124.745 6.42515 123.63 7.65765 122.029 8.07515C121.892 8.11015 121.89 8.15015 122.024 8.19515ZM117.056 3.60515V6.52015C117.056 6.53426 117.058 6.54824 117.063 6.56129C117.068 6.57433 117.075 6.58618 117.085 6.59616C117.094 6.60614 117.105 6.61406 117.117 6.61946C117.129 6.62487 117.142 6.62765 117.155 6.62765H119.631C119.847 6.62765 120.06 6.58859 120.26 6.5127C120.459 6.43682 120.64 6.32559 120.793 6.18538C120.945 6.04516 121.066 5.8787 121.149 5.6955C121.231 5.5123 121.274 5.31594 121.274 5.11765V5.00765C121.274 4.60717 121.101 4.2231 120.793 3.93992C120.485 3.65674 120.067 3.49765 119.631 3.49765H117.155C117.128 3.49765 117.103 3.50897 117.085 3.52913C117.066 3.54929 117.056 3.57664 117.056 3.60515Z" fill="white"/>
<path d="M131.721 5.44268L134.107 0.597684C134.113 0.585236 134.123 0.57492 134.134 0.567865C134.145 0.56081 134.158 0.557288 134.171 0.557684L137.799 0.570184C137.812 0.569983 137.824 0.573483 137.836 0.580321C137.847 0.587158 137.856 0.597085 137.862 0.609071C137.869 0.621057 137.872 0.634667 137.872 0.64849C137.872 0.662313 137.868 0.675845 137.861 0.687684L133.338 9.04768C133.332 9.05913 133.329 9.07204 133.329 9.08518L133.331 14.3577C133.331 14.3782 133.324 14.398 133.31 14.4125C133.297 14.427 133.279 14.4352 133.26 14.4352L129.879 14.4402C129.86 14.4402 129.842 14.432 129.829 14.4175C129.815 14.403 129.808 14.3832 129.808 14.3627V9.05018C129.807 9.03704 129.804 9.02413 129.798 9.01268L125.243 0.672684C125.236 0.660845 125.233 0.647313 125.233 0.63349C125.233 0.619667 125.236 0.606058 125.242 0.594071C125.249 0.582085 125.258 0.572158 125.269 0.565321C125.28 0.558483 125.292 0.554983 125.305 0.555184L129.09 0.567684C129.103 0.567742 129.115 0.571479 129.126 0.578511C129.137 0.585542 129.146 0.595613 129.152 0.607684L131.594 5.44518C131.6 5.45765 131.609 5.46801 131.621 5.47515C131.632 5.48229 131.645 5.48593 131.658 5.48568C131.671 5.48542 131.684 5.48127 131.695 5.47369C131.706 5.46611 131.715 5.45539 131.721 5.44268Z" fill="white"/>
</g>
<defs>
<clipPath id="clip0_2170_3810">
<rect width="138" height="15" fill="white"/>
</clipPath>
</defs>
</svg>
