<svg width="111" viewBox="0 0 111 21" fill="none" xmlns="http://www.w3.org/2000/svg">
<g clip-path="url(#clip0_6001_659)">
<path d="M15.5696 6.94709V6.79617C15.5696 4.83446 14.9712 3.17457 13.7744 2.04274C12.4281 0.760091 10.4086 0.0810201 8.01496 0.0810201H0.0117188V20.528H4.5745V13.8885H7.19243L11.0818 20.528H16.2428L11.7549 12.9831C13.4753 12.1531 15.5696 10.4934 15.5696 6.94709ZM11.0068 7.02254C11.0068 8.9088 9.73524 10.0405 7.64096 10.0405H4.5742V4.07991H7.64096C9.8101 4.07991 11.0068 5.06077 11.0068 7.02254ZM79.672 0.0057373L72.0424 20.5283H76.6052L78.176 16.1521H85.2817L86.8524 20.5283H91.5648L83.9352 0.0057373H79.672ZM83.8608 12.3041H79.5224L81.6915 6.04186L83.8608 12.3041ZM104.804 10.1161L110.863 0.156618H105.851L102.261 6.64529L98.7455 0.156618H93.5096L99.4935 10.1916L93.2105 20.6036H98.2219L102.037 13.7377L105.851 20.6036H111.012L104.804 10.1161ZM24.9185 16.6047V12.2286H33.0716V8.30525H24.9185V4.07994H34.1187V0.0810528H20.4306V20.528H28.9574L31.0518 16.6047H24.9185ZM63.8125 0.0810528L59.2497 6.72058L54.6123 0.0810528H54.5373L49.8999 8.98423V20.528H54.3129V7.8524L59.0998 14.1147V14.1901H59.3243L64.1862 7.85229V20.5279H68.5992V0.0809385L63.8125 0.0810528Z" fill="#002B31"/>
<path d="M44.3014 0.0740967L33.6055 20.5209H39.1404L49.8364 0.0740967H44.3014Z" fill="#002B31"/>
</g>
<defs>
<clipPath id="clip0_6001_659">
<rect width="111" height="20.5979" fill="white"/>
</clipPath>
</defs>
</svg>
