<svg width="167" viewBox="0 0 167 24" fill="none" xmlns="http://www.w3.org/2000/svg">
<g clip-path="url(#clip0_6001_684)">
<path d="M0.653129 7.37287H3.66757L4.37094 4.01693L8.84236 2.54236L7.83755 7.37287H11.5554L10.9022 10.4746H7.18442L5.6772 17.5424C5.57672 17.8983 5.47623 18.5085 5.47623 19.1186C5.47623 20.0847 6.12936 20.6949 7.08394 20.6949C7.83755 20.6949 8.59116 20.5424 9.09356 20.339L8.39019 23.5932C7.68682 23.7458 6.88297 23.9491 6.12936 23.9491C3.31588 23.9491 1.30626 22.8305 1.30626 19.7288C1.30626 18.4576 1.55746 17.2373 1.85891 15.9661L3.01444 10.4746H0L0.653129 7.37287Z" fill="#002B31"/>
<path d="M108.57 21.1016H108.52C107.114 22.9322 105.657 23.9491 103.345 23.9491C100.482 23.9491 98.4219 22.322 98.4219 19.322C98.4219 13.983 104.3 13.5762 108.219 13.5762H109.676C109.776 13.1186 109.776 12.661 109.776 12.2033C109.776 10.5762 108.018 10.1186 106.561 10.1186C104.752 10.1186 102.944 10.5762 101.286 11.3898L101.888 8.03385C103.647 7.42368 105.456 7.06775 107.314 7.06775C110.53 7.06775 113.544 8.23724 113.544 12.0508C113.544 14.2372 111.937 20.5932 111.585 23.644H108.068L108.57 21.1016ZM104.501 20.8983C107.616 20.8983 108.57 18.7118 109.224 16.1186H107.767C105.757 16.1186 102.391 16.4745 102.391 19.2203C102.391 20.2881 103.446 20.8983 104.501 20.8983Z" fill="#002B31"/>
<path d="M13.264 7.37284H17.434L14.0176 23.5423H9.84766L13.264 7.37284ZM14.7712 0.406738H18.9412L18.0871 4.42369H13.9172L14.7712 0.406738Z" fill="#002B31"/>
<path d="M29.9932 11.0848C29.1894 10.5255 28.0841 10.2713 26.9285 10.2713C23.6127 10.2713 21.7538 13.4238 21.7538 16.4747C21.7538 18.5594 22.4571 20.695 25.2706 20.695C26.2754 20.695 27.5817 20.3899 28.6367 19.8814L28.1846 23.2374C26.9285 23.8475 25.5218 24.0001 24.1653 24.0001C20.0456 24.0001 17.3828 21.2035 17.3828 17.034C17.3828 11.3899 21.1006 7.06787 26.8281 7.06787C28.3855 7.06787 29.8927 7.37296 30.998 7.67804L29.9932 11.0848Z" fill="#002B31"/>
<path d="M34.5662 0H38.7361L35.9729 13.2712H36.0231L41.8511 7.37288H47.2268L39.5902 14.7458L44.3631 23.5932H39.6907L35.571 15H35.5207L33.7121 23.5932H29.6426L34.5662 0Z" fill="#002B31"/>
<path d="M62.2486 7.37287H65.263L65.9664 4.01693L70.4378 2.54236L69.433 7.37287H73.1508L72.4977 10.4746H68.7799L67.2727 17.5424C67.1722 17.8983 67.0717 18.5085 67.0717 19.1186C67.0717 20.0847 67.7248 20.6949 68.6794 20.6949C69.433 20.6949 70.1866 20.5424 70.689 20.339L69.9857 23.5932C69.2823 23.7458 68.4784 23.9491 67.7248 23.9491C64.9113 23.9491 62.9017 22.8305 62.9017 19.7288C62.9017 18.4576 63.1529 17.2373 63.4544 15.9661L64.6099 10.4746H61.5955L62.2486 7.37287Z" fill="#002B31"/>
<path d="M60.8416 13.1695C60.8416 9.05087 58.2291 7.01697 54.3104 7.01697C49.0351 7.01697 45.2168 11.8475 45.2168 16.8814C45.2168 21.7119 48.3317 23.9492 52.9036 23.9492C54.6118 23.9492 56.3702 23.5424 57.9779 23.0339L58.5306 19.678C56.9731 20.3899 55.3152 20.8475 53.607 20.8475C50.9442 20.8475 49.3868 19.8814 49.1858 17.339C49.1858 17.1865 49.1858 17.0339 49.1858 16.8814C49.1858 16.8305 49.1858 16.8305 49.1858 16.7797V16.7288C49.1858 15.6102 49.437 14.5424 49.8389 13.5254C50.6428 11.4407 51.7481 10.017 54.2099 10.017C55.9683 10.017 56.8726 10.9831 56.8726 12.7119C56.8726 13.0678 56.8224 13.4237 56.7722 13.8305H51.095C50.7433 15.1017 50.6428 15.9661 50.6428 16.7288H60.4397C60.6909 15.5593 60.8416 14.3898 60.8416 13.1695Z" fill="#002B31"/>
<path d="M74.9608 9.15256C75.0613 8.54239 75.212 7.88137 75.3125 7.3729H79.1811L78.8294 9.55934H78.8796C79.9849 7.88137 81.8438 7.01697 83.8032 7.01697C85.7123 7.01697 87.6717 8.13561 87.8727 10.1187H87.9229C88.978 8.03392 91.2891 7.01697 93.5499 7.01697C95.9614 7.01697 97.9711 9.00002 97.9711 11.4407C97.9711 12.8644 97.6194 14.5424 97.2677 15.8644L95.6098 23.5932H91.4398L93.0977 15.7119C93.2987 14.7458 93.6504 13.2204 93.6504 12.2543C93.6504 11.0848 92.746 10.3221 91.691 10.3221C88.777 10.3221 88.0737 13.7288 87.5712 15.9153L85.9133 23.5932H81.7433L83.4013 15.7119C83.6022 14.7458 83.9539 13.2204 83.9539 12.2543C83.9539 11.0848 83.0496 10.3221 81.9945 10.3221C79.1811 10.3221 78.3772 13.7288 77.8748 15.9153L76.2169 23.5932H72.0469L74.9608 9.15256Z" fill="#002B31"/>
<path d="M125.955 10.678C125.502 10.4238 124.347 10.0679 123.191 10.0679C121.935 10.0679 120.378 10.4238 120.378 11.695C120.378 13.7289 125.804 14.4916 125.804 18.4577C125.804 22.678 122.187 23.9492 118.619 23.9492C116.962 23.9492 115.253 23.695 113.746 22.9831L114.65 19.6272C115.806 20.2882 117.012 20.8984 118.619 20.8984C120.026 20.8984 121.483 20.4408 121.483 19.1187C121.483 16.5255 116.057 16.2713 116.057 12.2035C116.057 8.38991 119.674 7.06787 122.99 7.06787C124.498 7.06787 126.055 7.37296 126.909 7.57635L125.955 10.678Z" fill="#002B31"/>
<path d="M128.618 7.37287H131.632L132.336 4.01693L136.807 2.54236L135.802 7.37287H139.52L138.867 10.4746H135.149L133.642 17.5424C133.542 17.8983 133.441 18.5085 133.441 19.1186C133.441 20.0847 134.094 20.6949 135.049 20.6949C135.802 20.6949 136.556 20.5424 137.058 20.339L136.355 23.5932C135.652 23.7458 134.848 23.9491 134.094 23.9491C131.281 23.9491 129.271 22.8305 129.271 19.7288C129.271 18.4576 129.522 17.2373 129.774 15.9661L130.979 10.4746H127.965L128.618 7.37287Z" fill="#002B31"/>
<path d="M156.851 9.55934C156.952 8.84748 157.103 8.13561 157.203 7.3729H161.172L160.62 10.4237H160.67C161.423 8.64409 163.483 7.01697 165.392 7.01697C165.945 7.01697 166.498 7.06782 167 7.16951L166.146 11.2882C165.694 11.1356 165.091 11.0339 164.538 11.0339C161.574 11.0339 160.167 13.7288 159.615 16.3221L158.107 23.5932H153.938L156.851 9.55934Z" fill="#002B31"/>
<path d="M153.988 13.1695C153.988 9.05087 151.376 7.01697 147.457 7.01697C142.232 7.01697 138.363 11.8475 138.363 16.8814C138.363 21.7119 141.478 23.9492 146.05 23.9492C147.758 23.9492 149.517 23.5424 151.124 23.0339L151.677 19.678C150.12 20.3899 148.462 20.8475 146.753 20.8475C144.091 20.8475 142.533 19.8814 142.332 17.339C142.332 17.1865 142.332 17.0339 142.332 16.8814C142.332 16.8305 142.332 16.8305 142.332 16.7797V16.7288C142.332 15.6102 142.584 14.5424 142.985 13.5254C143.789 11.4407 144.895 10.017 147.356 10.017C149.115 10.017 150.019 10.9831 150.019 12.7119C150.019 13.0678 149.969 13.4237 149.919 13.8305H144.241C143.89 15.1017 143.789 15.9661 143.789 16.7288H153.586C153.837 15.5593 153.988 14.3898 153.988 13.1695Z" fill="#002B31"/>
</g>
<defs>
<clipPath id="clip0_6001_684">
<rect width="167" height="24" fill="white"/>
</clipPath>
</defs>
</svg>
