<svg width="110" viewBox="0 0 110 31" fill="none" xmlns="http://www.w3.org/2000/svg">
<g clip-path="url(#clip0_6001_607)">
<path d="M109.404 4.89159L104.575 4.80356C104.464 4.80025 104.36 4.7542 104.283 4.67538C104.207 4.59655 104.165 4.49128 104.166 4.38229L104.191 0.408565C104.191 0.278623 104.127 0.224131 103.997 0.245089L100.419 0.842406C100.368 0.851345 100.321 0.877756 100.288 0.91692C100.254 0.956083 100.236 1.00544 100.237 1.05618L100.161 4.52691C100.153 4.8329 99.9956 5.00267 99.6896 5.0362L98.5579 5.16824C98.4012 5.18553 98.2567 5.26104 98.153 5.37982C98.0494 5.4986 97.9942 5.65198 97.9983 5.80957L98.0423 7.54493C98.0465 7.79643 98.1743 7.93057 98.4258 7.94733C98.7779 7.97248 99.1342 7.93686 99.4947 7.84045C99.5906 7.81343 99.6916 7.8096 99.7892 7.82926C99.8869 7.84892 99.9785 7.89152 100.057 7.95354C100.135 8.01556 100.197 8.09523 100.238 8.18598C100.279 8.27673 100.298 8.37596 100.293 8.47549C100.155 11.7241 100.147 14.719 100.268 17.4604C100.482 22.1698 105.254 21.7422 108.618 20.9185C108.924 20.8473 109.066 20.6545 109.045 20.3401L108.913 18.3658C108.888 17.976 108.687 17.8272 108.31 17.9194C106.543 18.3469 104.248 18.9128 104.21 16.1211C104.177 13.4259 104.156 10.8145 104.147 8.28686C104.147 8.19122 104.185 8.09941 104.252 8.03119C104.319 7.96298 104.41 7.92383 104.506 7.92218L109.404 7.87817" stroke="#021720" stroke-width="1.25751"/>
<path d="M0 29.9848L3.54618 29.4693C3.68298 29.4509 3.80834 29.3826 3.89866 29.2772C3.98899 29.1718 4.03804 29.0366 4.03661 28.8971C3.96115 23.209 3.96954 17.5083 4.06176 11.795C4.09529 9.71589 4.95668 8.41436 6.64594 7.8904C11.7263 6.30594 12.4682 12.1785 11.5691 15.5738C11.2463 16.7894 10.3996 17.6696 9.02892 18.2146C8.95039 18.2464 8.86258 18.2464 8.784 18.2148C8.70541 18.1831 8.64219 18.1222 8.60765 18.0448C8.42322 17.634 8.44627 17.2337 8.67681 16.8439C8.76903 16.6888 8.73131 16.5798 8.56364 16.5169C8.39178 16.454 8.23669 16.4771 8.09836 16.5861C6.79893 17.634 5.51837 18.6211 4.25667 19.5475C4.07223 19.6816 4.07014 19.82 4.25038 19.9625L7.89087 22.8359C8.30166 23.1587 8.50915 23.0581 8.51334 22.5341L8.51963 21.8613C8.52382 21.6014 8.65586 21.461 8.91574 21.4401C12.7826 21.132 15.612 18.3717 15.9201 14.5049C16.3665 8.9027 14.1218 4.46369 7.90345 4.43854C6.84295 4.43435 5.75101 4.64812 4.62763 5.07987C4.40128 5.16789 4.20218 5.13017 4.03032 4.96669L3.76624 4.71519C3.64069 4.59398 3.47235 4.5244 3.29467 4.52028C2.15453 4.48674 1.05631 4.63974 0 4.97927" stroke="#021720" stroke-width="1.25751"/>
<path d="M23.541 6.76545C23.1889 7.22235 22.9583 7.16576 22.8493 6.59569C22.7571 6.08011 22.7299 5.56034 22.7676 5.03638C22.7746 4.94193 22.7595 4.84717 22.7234 4.75958C22.6874 4.67199 22.6315 4.59399 22.5601 4.53176C22.4888 4.46953 22.4039 4.42478 22.3122 4.40105C22.2205 4.37732 22.1246 4.37526 22.032 4.39505L19.9696 4.8226C19.5211 4.91901 19.2969 5.19566 19.2969 5.65256V20.6358C19.2969 20.8999 19.4289 21.0319 19.693 21.0319H22.755C23.0107 21.0277 23.1386 20.8999 23.1386 20.6484C23.126 18.0537 23.1113 15.3333 23.0946 12.4871C23.0757 9.84006 25.8925 8.01039 28.2378 8.16129C28.6737 8.18644 28.8959 7.98105 28.9042 7.54511L28.942 5.39477C28.9504 4.95045 28.7324 4.70733 28.2881 4.66541C26.3389 4.48936 24.7566 5.18937 23.541 6.76545Z" stroke="#021720" stroke-width="1.25751"/>
<path d="M47.1495 11.89C47.1799 9.95253 46.4395 8.08233 45.091 6.69082C43.7425 5.29932 41.8965 4.50048 39.959 4.47006L38.5508 4.44792C36.6133 4.41749 34.7431 5.15795 33.3516 6.50641C31.9601 7.85488 31.1612 9.7009 31.1308 11.6384L31.0947 13.9394C31.0642 15.8768 31.8047 17.747 33.1532 19.1385C34.5017 20.53 36.3477 21.3289 38.2852 21.3593L39.6934 21.3814C41.6308 21.4119 43.501 20.6714 44.8926 19.3229C46.2841 17.9745 47.0829 16.1284 47.1134 14.191L47.1495 11.89Z" stroke="#021720" stroke-width="1.25751"/>
<path d="M54.6393 6.16158C54.4926 5.83043 54.4381 5.47414 54.4759 5.0927C54.5262 4.56873 54.2914 4.35076 53.7717 4.43879L51.5459 4.81604C51.1477 4.88311 50.9485 5.11785 50.9485 5.52025L50.9297 20.6732C50.9297 20.9373 51.0617 21.0673 51.3258 21.0631L54.4256 21.0379C54.7441 21.0337 54.9034 20.8723 54.9034 20.5538L54.9097 9.88381C54.9097 9.61135 55.0208 9.39338 55.2429 9.2299C57.0475 7.90323 61.2287 6.31248 61.2853 10.2296C61.3356 13.6752 61.3565 17.083 61.3482 20.4532C61.344 20.8095 61.52 20.9876 61.8763 20.9876L64.712 21.0128C65.0683 21.017 65.2464 20.8409 65.2464 20.4846L65.2653 9.89009C65.2653 9.72116 65.3115 9.55525 65.399 9.41015C65.4865 9.26505 65.612 9.14623 65.762 9.06642C66.9818 8.41252 68.9246 7.3625 70.3016 7.87808C71.1609 8.19665 71.601 8.8757 71.622 9.91524C71.6807 13.2476 71.7079 16.8148 71.7037 20.6166C71.7037 20.931 71.8609 21.084 72.1753 21.0756L75.011 21.0128C75.3673 21.0086 75.5454 20.8262 75.5454 20.4657C75.5538 16.601 75.537 12.9102 75.4951 9.39338C75.4742 7.33944 74.5792 5.8472 72.8104 4.91664C70.2513 3.57111 67.1453 5.13671 64.9383 6.68973C64.7162 6.84483 64.5359 6.8092 64.3976 6.58284C62.2787 3.13098 57.8649 4.34448 55.1235 6.2999C54.9055 6.455 54.7441 6.40889 54.6393 6.16158Z" stroke="#021720" stroke-width="1.25751"/>
<path d="M83.9565 4.81028C83.902 4.67615 83.8077 4.57974 83.6736 4.52105C83.4388 4.41207 83.1915 4.38692 82.9316 4.4456C82.1478 4.61327 81.3828 4.74531 80.6367 4.84172C80.5204 4.85695 80.4136 4.91443 80.3361 5.00347C80.2586 5.09251 80.2157 5.20707 80.2154 5.32586L80.1211 29.7467C80.1211 30.0066 80.2489 30.1114 80.5046 30.0611L83.7742 29.4072C83.884 29.3841 83.9826 29.3241 84.0536 29.2372C84.1245 29.1502 84.1635 29.0415 84.164 28.9293L84.12 21.2271C84.1201 21.159 84.1369 21.092 84.1689 21.032C84.201 20.972 84.2474 20.9208 84.3039 20.8829C84.3604 20.845 84.4254 20.8216 84.4931 20.8147C84.5608 20.8079 84.6292 20.8178 84.6921 20.8435C86.8257 21.6944 89.1521 21.6798 91.6713 20.7995C95.972 19.3031 96.7957 13.9021 95.7834 9.92835C94.4944 4.84801 89.1374 3.40816 84.5727 5.08065C84.2793 5.18963 84.0739 5.09951 83.9565 4.81028Z" stroke="#021720" stroke-width="1.25751"/>
<path d="M39.1862 18.3907C40.2818 18.3812 41.3274 17.7997 42.0932 16.7742C42.859 15.7487 43.2821 14.3632 43.2695 12.9225C43.257 11.4817 42.8097 10.1038 42.0262 9.09184C41.2426 8.07986 40.187 7.51669 39.0914 7.52624C37.9959 7.53581 36.9502 8.11731 36.1844 9.14281C35.4187 10.1683 34.9955 11.5538 35.0081 12.9945C35.0206 14.4352 35.4679 15.8132 36.2515 16.8251C37.035 17.8371 38.0907 18.4003 39.1862 18.3907Z" stroke="#021720" stroke-width="1.25751"/>
<path d="M92.0127 11.4027C92.0185 10.9305 91.9311 10.4617 91.7558 10.0232C91.5804 9.58464 91.3203 9.18496 90.9904 8.84694C90.6606 8.50892 90.2674 8.23918 89.8333 8.05312C89.3992 7.86706 88.9327 7.76833 88.4604 7.76256L87.8946 7.75564C87.4223 7.74987 86.9535 7.83717 86.515 8.01256C86.0765 8.18796 85.6768 8.44801 85.3388 8.77787C85.0008 9.10773 84.731 9.50094 84.545 9.93504C84.3589 10.3691 84.2602 10.8357 84.2544 11.3079L84.2151 14.5269C84.2093 14.9992 84.2966 15.4679 84.472 15.9065C84.6474 16.345 84.9075 16.7447 85.2373 17.0827C85.5672 17.4207 85.9604 17.6904 86.3945 17.8765C86.8286 18.0626 87.2951 18.1613 87.7674 18.1671L88.3332 18.174C88.8055 18.1798 89.2742 18.0925 89.7128 17.9171C90.1513 17.7417 90.551 17.4816 90.889 17.1518C91.227 16.8219 91.4968 16.4287 91.6828 15.9946C91.8689 15.5605 91.9676 15.094 91.9734 14.6217L92.0127 11.4027Z" stroke="#021720" stroke-width="1.25751"/>
<path d="M109.404 4.89159V7.87817L104.506 7.92218C104.41 7.92383 104.319 7.96298 104.252 8.03119C104.185 8.09941 104.147 8.19122 104.147 8.28686C104.156 10.8145 104.177 13.4259 104.21 16.1211C104.248 18.9128 106.543 18.3469 108.31 17.9194C108.687 17.8272 108.888 17.976 108.913 18.3658L109.045 20.3401C109.066 20.6545 108.924 20.8473 108.618 20.9185C105.254 21.7422 100.482 22.1698 100.268 17.4604C100.147 14.719 100.155 11.7241 100.293 8.47549C100.298 8.37596 100.279 8.27673 100.238 8.18598C100.197 8.09523 100.135 8.01556 100.057 7.95354C99.9785 7.89152 99.8869 7.84892 99.7892 7.82926C99.6916 7.8096 99.5906 7.81343 99.4947 7.84045C99.1342 7.93686 98.7779 7.97249 98.4258 7.94733C98.1743 7.93057 98.0465 7.79643 98.0423 7.54493L97.9983 5.80957C97.9942 5.65198 98.0494 5.4986 98.153 5.37982C98.2567 5.26104 98.4012 5.18553 98.5579 5.16824L99.6896 5.0362C99.9956 5.00267 100.153 4.8329 100.161 4.52691L100.237 1.05618C100.236 1.00544 100.254 0.956083 100.288 0.91692C100.321 0.877756 100.368 0.851345 100.419 0.842406L103.997 0.245089C104.127 0.224131 104.191 0.278623 104.191 0.408565L104.166 4.3823C104.165 4.49128 104.207 4.59655 104.283 4.67538C104.36 4.7542 104.464 4.80025 104.575 4.80356L109.404 4.89159Z" fill="#021720"/>
<path d="M0 29.9856V4.98C1.05631 4.64047 2.15453 4.48747 3.29467 4.52101C3.47235 4.52513 3.64069 4.59471 3.76624 4.71592L4.03032 4.96742C4.20218 5.1309 4.40128 5.16862 4.62763 5.0806C5.75101 4.64885 6.84295 4.43508 7.90345 4.43927C14.1218 4.46442 16.3665 8.90343 15.9201 14.5056C15.612 18.3725 12.7826 21.1327 8.91574 21.4408C8.65586 21.4618 8.52382 21.6022 8.51963 21.8621L8.51334 22.5348C8.50915 23.0588 8.30166 23.1594 7.89087 22.8366L4.25038 19.9632C4.07014 19.8207 4.07223 19.6824 4.25667 19.5482C5.51837 18.6219 6.79893 17.6347 8.09836 16.5868C8.23669 16.4778 8.39178 16.4548 8.56364 16.5176C8.73131 16.5805 8.76903 16.6895 8.67682 16.8446C8.44627 17.2344 8.42322 17.6347 8.60765 18.0455C8.64219 18.1229 8.70541 18.1838 8.784 18.2155C8.86258 18.2472 8.95039 18.2471 9.02892 18.2153C10.3996 17.6704 11.2463 16.7901 11.5691 15.5745C12.4682 12.1792 11.7263 6.30667 6.64594 7.89113C4.95668 8.4151 4.09529 9.71662 4.06176 11.7957C3.96954 17.509 3.96115 23.2097 4.0366 28.8978C4.03804 29.0374 3.98899 29.1726 3.89866 29.2779C3.80834 29.3833 3.68298 29.4516 3.54618 29.47L0 29.9856Z" fill="#021720"/>
<path d="M23.541 6.76545C24.7566 5.18937 26.3389 4.48936 28.2881 4.66541C28.7324 4.70733 28.9504 4.95045 28.942 5.39477L28.9042 7.54511C28.8959 7.98105 28.6737 8.18644 28.2378 8.16129C25.8925 8.01039 23.0757 9.84006 23.0946 12.4871C23.1113 15.3333 23.126 18.0537 23.1386 20.6484C23.1386 20.8999 23.0107 21.0277 22.755 21.0319H19.693C19.4289 21.0319 19.2969 20.8999 19.2969 20.6358V5.65256C19.2969 5.19566 19.5211 4.91901 19.9696 4.8226L22.032 4.39505C22.1246 4.37526 22.2205 4.37732 22.3122 4.40105C22.4039 4.42478 22.4888 4.46953 22.5601 4.53176C22.6315 4.59399 22.6874 4.67199 22.7234 4.75958C22.7595 4.84717 22.7746 4.94193 22.7676 5.03638C22.7299 5.56034 22.7571 6.08011 22.8493 6.59569C22.9583 7.16576 23.1889 7.22235 23.541 6.76545Z" fill="#021720"/>
<path d="M47.1134 14.191C47.0829 16.1284 46.2841 17.9745 44.8926 19.3229C43.501 20.6714 41.6308 21.4119 39.6934 21.3814L38.2852 21.3593C36.3477 21.3289 34.5017 20.53 33.1532 19.1385C31.8047 17.747 31.0642 15.8768 31.0947 13.9394L31.1308 11.6384C31.1612 9.7009 31.9601 7.85488 33.3516 6.50641C34.7431 5.15795 36.6133 4.41749 38.5508 4.44792L39.959 4.47006C41.8965 4.50048 43.7425 5.29932 45.091 6.69082C46.4395 8.08233 47.1799 9.95253 47.1495 11.89L47.1134 14.191ZM39.1884 18.3909C40.2839 18.3814 41.3296 17.7999 42.0953 16.7744C42.8611 15.7489 43.2843 14.3634 43.2717 12.9227C43.2591 11.4819 42.8119 10.104 42.0283 9.09203C41.2448 8.08005 40.1891 7.51688 39.0935 7.52643C37.998 7.536 36.9523 8.1175 36.1866 9.143C35.4208 10.1685 34.9976 11.554 35.0102 12.9947C35.0228 14.4354 35.47 15.8133 36.2536 16.8253C37.0371 17.8373 38.0928 18.4005 39.1884 18.3909Z" fill="#021720"/>
<path d="M55.1235 6.30064C57.8649 4.34521 62.2787 3.13171 64.3976 6.58358C64.5359 6.80993 64.7162 6.84556 64.9383 6.69046C67.1453 5.13744 70.2513 3.57184 72.8104 4.91738C74.5792 5.84793 75.4742 7.34018 75.4951 9.39411C75.5371 12.9109 75.5538 16.6017 75.5454 20.4665C75.5454 20.827 75.3673 21.0093 75.011 21.0135L72.1753 21.0764C71.8609 21.0848 71.7037 20.9318 71.7037 20.6174C71.7079 16.8155 71.6807 13.2484 71.622 9.91598C71.601 8.87644 71.1609 8.19738 70.3016 7.87881C68.9246 7.36323 66.9818 8.41325 65.762 9.06716C65.612 9.14696 65.4865 9.26578 65.399 9.41088C65.3115 9.55598 65.2653 9.72189 65.2653 9.89083L65.2464 20.4853C65.2464 20.8416 65.0683 21.0177 64.712 21.0135L61.8763 20.9883C61.52 20.9883 61.344 20.8102 61.3482 20.4539C61.3565 17.0838 61.3356 13.6759 61.2853 10.2304C61.2287 6.31321 57.0475 7.90396 55.2429 9.23063C55.0208 9.39411 54.9097 9.61208 54.9097 9.88454L54.9034 20.5545C54.9034 20.8731 54.7441 21.0345 54.4256 21.0386L51.3258 21.0638C51.0617 21.068 50.9297 20.938 50.9297 20.674L50.9485 5.52098C50.9485 5.11858 51.1477 4.88384 51.5459 4.81678L53.7717 4.43952C54.2914 4.3515 54.5262 4.56947 54.4759 5.09343C54.4381 5.47487 54.4926 5.83117 54.6393 6.16231C54.7441 6.40962 54.9055 6.45573 55.1235 6.30064Z" fill="#021720"/>
<path d="M84.5727 5.08065C89.1374 3.40816 94.4944 4.84801 95.7834 9.92835C96.7957 13.9021 95.972 19.3031 91.6713 20.7995C89.1521 21.6798 86.8257 21.6944 84.6921 20.8435C84.6292 20.8178 84.5608 20.8079 84.4931 20.8147C84.4254 20.8216 84.3604 20.845 84.3039 20.8829C84.2474 20.9208 84.201 20.972 84.1689 21.032C84.1369 21.092 84.1201 21.159 84.12 21.2271L84.164 28.9293C84.1635 29.0415 84.1245 29.1502 84.0536 29.2372C83.9826 29.3241 83.884 29.3841 83.7742 29.4072L80.5046 30.0611C80.2489 30.1114 80.1211 30.0066 80.1211 29.7467L80.2154 5.32586C80.2157 5.20707 80.2586 5.09251 80.3361 5.00347C80.4136 4.91443 80.5204 4.85695 80.6367 4.84172C81.3828 4.74531 82.1478 4.61327 82.9316 4.4456C83.1915 4.38692 83.4388 4.41207 83.6736 4.52105C83.8077 4.57974 83.902 4.67615 83.9565 4.81028C84.0739 5.09951 84.2793 5.18963 84.5727 5.08065ZM92.0114 11.4032C92.0171 10.9309 91.9298 10.4621 91.7544 10.0236C91.579 9.58506 91.319 9.18538 90.9891 8.84736C90.6593 8.50934 90.266 8.2396 89.8319 8.05354C89.3978 7.86748 88.9313 7.76875 88.4591 7.76298L87.8933 7.75606C87.421 7.75029 86.9522 7.83759 86.5137 8.01298C86.0752 8.18838 85.6755 8.44843 85.3375 8.77829C84.9994 9.10815 84.7297 9.50136 84.5436 9.93546C84.3576 10.3696 84.2588 10.8361 84.2531 11.3083L84.2138 14.5273C84.208 14.9996 84.2953 15.4684 84.4707 15.9069C84.6461 16.3454 84.9062 16.7451 85.236 17.0831C85.5659 17.4211 85.9591 17.6909 86.3932 17.8769C86.8273 18.063 87.2938 18.1617 87.7661 18.1675L88.3319 18.1744C88.8041 18.1802 89.2729 18.0929 89.7114 17.9175C90.15 17.7421 90.5496 17.482 90.8877 17.1522C91.2257 16.8223 91.4954 16.4291 91.6815 15.995C91.8675 15.5609 91.9663 15.0944 91.9721 14.6221L92.0114 11.4032Z" fill="#021720"/>
</g>
<defs>
<clipPath id="clip0_6001_607">
<rect width="109.403" height="30.1802" fill="white"/>
</clipPath>
</defs>
</svg>
